<?xml version="1.0" encoding="utf-8"?>
<!-- Generator: Adobe Illustrator 24.3.0, SVG Export Plug-In . SVG Version: 6.00 Build 0)  -->
<svg version="1.1" id="Layer_1" xmlns="http://www.w3.org/2000/svg" xmlns:xlink="http://www.w3.org/1999/xlink" x="0px" y="0px"
	 viewBox="0 0 205.3 210" style="enable-background:new 0 0 205.3 210;" xml:space="preserve">
<style type="text/css">
	.st0{fill:#7B9A68;}
	.st1{fill:#657D55;}
</style>
<g>
	<path class="st0" d="M203.8,192.8c-2.1,0-4.1-0.7-5.7-1.8c-0.3-0.2-0.6-0.5-0.8-0.7c-2-1.8-3.3-4.4-3.3-7.4c0-1.4,0.3-2.8,0.9-4.1
		l0.2-0.4l-0.4-0.2c-3.6-2.3-5.8-6.2-5.8-10.5c0-6.8,5.6-12.4,12.4-12.4c0.4,0,0.9,0,1.3,0.1l0.7,0.1l-0.1-0.7
		c-0.2-0.9-0.3-1.7-0.3-2.6c0-2.7,0.9-5.3,2.5-7.3v-8.7c-0.2,0-0.5,0-0.7,0c-2.6,0-5.1-0.9-7-2.5l-0.8-0.7v15.3h-2.3v-15.6l-0.8,0.8
		c-1.9,1.8-4.3,2.8-6.9,2.8c-5.4,0-9.9-4.4-9.9-9.9c0-1.4,0.3-2.8,0.9-4.1l0.2-0.4l-0.4-0.2c-1.8-1.1-3.2-2.6-4.2-4.4
		c-0.1-0.2-0.2-0.4-0.3-0.5c-0.1-0.2-0.2-0.4-0.3-0.5c-0.7-1.6-1.1-3.3-1.1-5c0-6.6,5.1-11.9,11.5-12.4c0.3,0,0.6,0,0.8,0
		c0,0,0,0,0,0c0.2,0,0.5,0,0.7,0c0.2,0,0.4,0,0.6,0l0.7,0.1l-0.1-0.7c0-0.2-0.1-0.3-0.1-0.5c0-0.2-0.1-0.4-0.1-0.7
		c0-0.3,0-0.5-0.1-0.8c0-0.2,0-0.5,0-0.7c0-2.4,0.7-4.5,1.9-6.4c0.1-0.2,0.3-0.4,0.4-0.6c0.1-0.2,0.3-0.4,0.4-0.5
		c2.2-2.7,5.6-4.5,9.4-4.5c2.9,0,5.5,1,7.6,2.7V0h-7.5c0.7,1.5,1,3,1,4.7c0,6.1-5,11-11,11c-2.6,0-5.1-0.9-7-2.5l-0.8-0.7v15.3h-2.3
		V12.1l-0.8,0.8c-1.9,1.8-4.3,2.8-6.9,2.8c-5.4,0-9.9-4.4-9.9-9.9c0-1.4,0.3-2.8,0.9-4.1l0.2-0.4l-0.4-0.2c-0.5-0.3-1-0.7-1.5-1.1
		h-51.1c-1.8,3.7-5.6,6.2-9.9,6.2c-2.6,0-5.1-0.9-7-2.5L90.5,3v15.3h-2.3V2.6l-0.8,0.8c-1.8,1.8-4.3,2.8-6.9,2.8
		c-4.1,0-7.7-2.6-9.2-6.2H46.8c0.2,0.8,0.2,1.5,0.2,2.3c0,5.1-3.4,9.3-8.1,10.6c-1.9-5-6.6-8.5-12.2-8.5c-5.5,0-10.2,3.4-12.1,8.2
		c-3.7-1.4-6.3-5-6.3-9.2c0-1.2,0.2-2.4,0.6-3.5H0v86.2c1.5,1.2,2.7,2.9,3.5,4.7c-0.1,0.8-0.2,1.6-0.2,2.4c0,1.7,0.3,3.3,0.9,4.8
		c-0.1,0.3-0.2,0.7-0.3,1l-0.1,0.4l0.4,0.2c0.2,0.1,0.4,0.2,0.6,0.3l0.1,0.1c0.1,0,0.2,0.1,0.3,0.1c1,1.6,2.3,3.1,4,4.2
		c-0.5,1.3-0.8,2.7-0.8,4.1c0,2.7,1,5.2,2.7,7.1c-0.6,1.1-1.5,2-2.5,2.8l-0.4,0.3l0.3,0.4c1.2,1.8,1.8,3.9,1.8,6.1
		c0,5.8-4.6,10.6-10.3,11v8.7c2.2-2.9,5.7-4.8,9.6-4.8c6.6,0,12,5.4,12,12c0,1.2-0.2,2.4-0.5,3.5L21,156l0.4,0.2
		c0.2,0.1,0.4,0.2,0.6,0.3l0.1,0.1c0.5,0.1,1,0.3,1.5,0.5c0.6,3.6,2.6,6.9,5.7,9c-0.5,1.1-0.7,2.3-0.8,3.5
		c-6.9,0.4-12.3,6.1-12.3,13c0,0.7,0.1,1.5,0.2,2.2c-4.9-0.3-9.3,2.2-11.9,6c-1.3,1-2.8,1.6-4.4,1.8V210h8.9
		c0.1-0.2,0.2-0.4,0.3-0.6l0.2-0.4L9,208.7c-1.2-0.8-2.3-1.8-3.2-2.9c-0.2-0.3-0.4-0.5-0.6-0.8c-1.3-2-2.1-4.3-2.1-6.8
		c0-2.5,0.7-4.7,2-6.7c0.2-0.3,0.4-0.6,0.6-0.9c0.2-0.2,0.3-0.4,0.5-0.6c2.3-2.6,5.6-4.3,9.4-4.3c0.4,0,0.9,0,1.3,0.1l0.7,0.1
		l-0.1-0.7c-0.2-0.9-0.3-1.7-0.3-2.6c0-6.4,5-11.6,11.3-12c0.2,0,0.3,0,0.5,0c0,0,0,0,0.1,0c0.1,0,0.1,0,0.2,0c0.1,0,0.2,0,0.3,0
		c0,0,0.1,0,0.1,0c0.2,0,0.3,0,0.5,0c5.3,0.4,9.7,4.3,10.9,9.4c0,0.2,0.1,0.3,0.1,0.5c0,0.2,0.1,0.3,0.1,0.5
		c0.1,0.5,0.1,1.1,0.1,1.6c0,1.2-0.2,2.4-0.5,3.5l-0.1,0.4l0.4,0.2c0.2,0.1,0.4,0.2,0.6,0.3l0.1,0.1c1.7,0.5,3.1,1.3,4.3,2.5
		c0.2,0.2,0.3,0.3,0.5,0.5c0.2,0.2,0.3,0.4,0.5,0.6c0.4,0.5,0.7,1,1,1.5c0.1,0.2,0.2,0.3,0.3,0.5c0.1,0.2,0.2,0.3,0.2,0.5
		c0.5,1.3,0.8,2.7,0.8,4.1c0,3.2-1.5,6.2-4,8.3l-0.4,0.3l0.3,0.4c0.8,1.2,1.3,2.4,1.6,3.8h24.5c-0.5-1.1-0.7-2.4-0.7-3.7
		c0-1.4,0.3-2.8,0.9-4.1l0.2-0.4l-0.4-0.2c-3.6-2.3-5.8-6.2-5.8-10.5c0-6.8,5.6-12.4,12.4-12.4c0.4,0,0.9,0,1.3,0.1l0.7,0.1
		l-0.1-0.7c-0.2-0.9-0.3-1.7-0.3-2.6c0-6.6,5.4-12,12-12c0.6,0,1.2,0.1,1.7,0.1c0.2,0,0.3,0,0.5,0.1c0.2,0,0.3,0.1,0.5,0.1
		c4.4,1,7.9,4.5,8.9,8.8c0,0.2,0.1,0.3,0.1,0.5c0,0.2,0.1,0.3,0.1,0.5c0.1,0.6,0.2,1.2,0.2,1.9c0,1.2-0.2,2.4-0.5,3.5l-0.1,0.4
		l0.4,0.2c0.2,0.1,0.4,0.2,0.6,0.3l0.1,0.1c4.5,1.3,7.7,5.4,7.7,10.1c0,3.2-1.5,6.2-4,8.3l-0.4,0.3l0.3,0.4c1.2,1.8,1.8,3.9,1.8,6.1
		c0,1.7-0.4,3.4-1.1,4.8h51.1c-2.7-2.3-4.3-5.7-4.3-9.4c0-6.8,5.6-12.4,12.4-12.4c0.4,0,0.9,0,1.3,0.1l0.7,0.1l-0.2-0.7
		c-0.2-0.9-0.3-1.7-0.3-2.6c0-6.6,5.4-12,12-12s12,5.4,12,12c0,1.2-0.2,2.4-0.5,3.5l-0.1,0.4l0.4,0.2c0.2,0.1,0.4,0.2,0.6,0.3
		l0.1,0.1c1.2,0.3,2.3,0.9,3.2,1.6c0.3,0.2,0.5,0.5,0.8,0.7c2.2,2,3.6,4.8,3.6,7.9c0,3.2-1.5,6.2-4,8.3l-0.4,0.3l0.3,0.4
		c0.3,0.5,0.6,0.9,0.8,1.4h7.5v-17.3C204.8,192.8,204.3,192.8,203.8,192.8z M184.7,95.5c0,0.6,0.1,1.2,0.1,1.8
		c-0.1,0.1-0.2,0.2-0.3,0.4c-0.1,0-0.2,0-0.3,0c-7.4,0-13.4,6-13.4,13.4c0,1.7,0.3,3.3,0.9,4.8c-1.1-0.3-2.1-0.7-3-1.2
		c-2.4-2.4-5.6-3.8-9.2-3.8c-3.4,0-6.5,1.3-8.8,3.5c-2.4-1.8-4-4.7-4-7.9c0-1.4,0.3-2.8,0.9-4.1l0.2-0.4l-0.4-0.2
		c-3.6-2.3-5.8-6.2-5.8-10.5c0-2.5,0.8-4.9,2-6.8c0.1-0.2,0.2-0.3,0.4-0.5c0.1-0.2,0.3-0.4,0.4-0.6c1.8-2.2,4.3-3.7,7.2-4.3
		c0.2,0,0.5-0.1,0.7-0.1c0.2,0,0.4-0.1,0.6-0.1c0.3,0,0.7-0.1,1.1-0.1c0.4,0,0.9,0,1.3,0.1l0.7,0.1l-0.2-0.7
		c-0.2-0.9-0.3-1.7-0.3-2.6c0-3.8,1.7-7.1,4.4-9.3c0.1-0.1,0.3-0.2,0.4-0.3c0.1-0.1,0.3-0.2,0.4-0.3c1.9-1.3,4.3-2.1,6.8-2.1
		c6.6,0,12,5.4,12,12c0,1.2-0.2,2.4-0.5,3.5l-0.1,0.4l0.1,0.1l0.3,0.1c0.2,0.1,0.4,0.2,0.6,0.3l0.1,0l0,0c0.8,0.2,1.6,0.5,2.3,0.9
		c0.2,0.1,0.3,0.2,0.5,0.3c0.2,0.1,0.3,0.2,0.5,0.3c2,1.5,3.5,3.6,4.1,6.1C185.6,89.9,184.7,92.6,184.7,95.5z M133.6,95.8
		c0,0,0,0.1,0.1,0.1c0.1,0.2,0.2,0.3,0.3,0.5c1,1.7,1.5,3.5,1.5,5.5c0,6.1-5,11-11,11c-2.6,0-5.1-0.9-7-2.5l-0.8-0.7v9.3
		c-0.5-0.1-1-0.1-1.5-0.1c-0.3,0-0.5,0-0.8,0v-9.7l-0.8,0.8c-1.9,1.8-4.3,2.8-6.9,2.8c-5.4,0-9.9-4.4-9.9-9.9c0-1.4,0.3-2.8,0.9-4.1
		l0.2-0.4l-0.4-0.2c-2-1.2-3.5-2.9-4.5-4.9c-0.1-0.2-0.1-0.3-0.2-0.5c-0.1-0.2-0.2-0.3-0.2-0.5c-0.6-1.5-0.9-3-0.9-4.7
		c0-3.6,1.5-6.8,4-9.1c0.1-0.1,0.3-0.2,0.4-0.3c0.1-0.1,0.3-0.2,0.4-0.3c2.1-1.7,4.8-2.7,7.7-2.7c0.4,0,0.9,0,1.3,0.1l0.7,0.1
		l-0.1-0.7c-0.2-0.9-0.3-1.7-0.3-2.6c0-3.6,1.6-6.9,4.2-9.1c0.1-0.1,0.3-0.2,0.4-0.4c0.1-0.1,0.3-0.2,0.4-0.3c0.1,0,0.1-0.1,0.2-0.1
		c0.2-0.1,0.3-0.2,0.5-0.3c0.2-0.1,0.3-0.2,0.5-0.3c0.7-0.4,1.5-0.7,2.3-1c0.2-0.1,0.3-0.1,0.5-0.1c0.2,0,0.3-0.1,0.5-0.1
		c0.8-0.2,1.7-0.3,2.5-0.3c6.6,0,12,5.4,12,12c0,1.2-0.2,2.4-0.5,3.5l-0.1,0.4l0.4,0.2c0.2,0.1,0.4,0.2,0.6,0.3l0.1,0.1
		c2.5,0.7,4.6,2.3,6,4.4c0.2,0.3,0.4,0.6,0.6,1c0.1,0.3,0.2,0.5,0.4,0.8c0.5,1.2,0.8,2.6,0.8,3.9c0,2.2-0.7,4.3-2,6.1
		c-0.2,0.2-0.3,0.4-0.5,0.7c-0.2,0.2-0.3,0.4-0.5,0.6c-0.3,0.3-0.7,0.7-1,0.9l-0.3,0.3l0,0L133.6,95.8z M130.4,75.8
		c-0.1,0-0.2-0.1-0.2-0.1c0.3-1.1,0.5-2.3,0.5-3.4c0-7.2-5.9-13-13-13c-0.9,0-1.7,0.1-2.5,0.3c-0.2,0-0.3,0.1-0.5,0.1
		c-0.2,0-0.3,0.1-0.5,0.1c-0.8,0.2-1.6,0.5-2.3,0.9c-0.2,0.1-0.3,0.2-0.5,0.3c-0.2,0.1-0.3,0.2-0.5,0.3c-0.2,0.1-0.3,0.2-0.5,0.3
		c-0.3-1-0.4-2.1-0.4-3.2c0-1.6,0.3-3.2,0.9-4.6c0.1-0.4,0.3-0.7,0.5-1.1c0.2-0.3,0.3-0.6,0.5-0.9c2.2-3.5,6.1-5.8,10.5-5.8
		c0.4,0,0.9,0,1.3,0.1l0.7,0.1l-0.1-0.7c-0.2-0.9-0.3-1.7-0.3-2.6c0-1.5,0.3-2.9,0.8-4.2c0.1-0.2,0.1-0.4,0.2-0.5
		c0.1-0.2,0.2-0.3,0.2-0.5c1.9-3.8,5.6-6.5,10.1-6.8c0.2,0,0.3,0,0.5,0c0.1,0,0.1,0,0.2,0c0.1,0,0.2,0,0.3,0
		c6.5,0.2,11.8,5.5,11.8,12c0,1.2-0.2,2.4-0.5,3.5l-0.1,0.4l0.4,0.2c0.2,0.1,0.4,0.2,0.6,0.3l0.1,0.1c3.7,1.1,6.5,4.1,7.4,7.7
		c0,0.2,0.1,0.3,0.1,0.5c0,0.2,0.1,0.3,0.1,0.5c0.1,0.5,0.1,0.9,0.1,1.4c0,3.2-1.5,6.2-4,8.3l-0.4,0.3l0.3,0.4
		c1.2,1.8,1.8,3.9,1.8,6.1c0,2-0.5,3.9-1.5,5.5c-3.8,0.5-7.1,2.5-9.2,5.5c-0.1,0-0.2,0-0.3,0c-1.7,0-3.4-0.4-4.9-1.2
		C136.4,79.1,133.7,76.7,130.4,75.8z M170.9,44.8l0.7,0.1l-0.2-0.7c-0.2-0.9-0.3-1.7-0.3-2.6c0-6.6,5.4-12,12-12c6.6,0,12,5.4,12,12
		c0,1.2-0.2,2.4-0.5,3.5l-0.1,0.4l0.4,0.2c0.2,0.1,0.4,0.2,0.6,0.3l0.1,0.1c4.5,1.3,7.7,5.4,7.7,10.1c0,3.2-1.5,6.2-4,8.3l-0.4,0.3
		l0.3,0.4c1.2,1.8,1.8,3.9,1.8,6.1c0,6.1-5,11-11,11c-2.6,0-5.1-0.9-7-2.5l-0.8-0.7v0.9c-0.6-0.3-1.3-0.6-1.9-0.8
		c-0.1,0-0.2-0.1-0.2-0.1c0.3-1.1,0.5-2.3,0.5-3.4c0-7.2-5.9-13-13-13c-2.8,0-5.4,0.9-7.5,2.4c-1.7-2.2-2.7-4.9-2.7-7.8
		c0-0.5,0-0.9,0.1-1.4c0-0.2,0.1-0.3,0.1-0.5c0-0.2,0-0.4,0.1-0.5c0.9-4.5,4.3-8.2,8.7-9.5c0.2-0.1,0.4-0.1,0.5-0.1
		c0.2,0,0.3-0.1,0.5-0.1c0.8-0.2,1.6-0.2,2.5-0.2C170,44.7,170.5,44.7,170.9,44.8z M134.8,17.4c0.4,0,0.9,0,1.3,0.1l0.7,0.1
		l-0.2-0.7c-0.2-0.9-0.3-1.7-0.3-2.6c0-6.6,5.4-12,12-12c6.6,0,12,5.4,12,12c0,1.2-0.2,2.4-0.5,3.5l-0.1,0.4l0.4,0.2
		c0.2,0.1,0.4,0.2,0.6,0.3l0.1,0.1c4.5,1.3,7.7,5.4,7.7,10.1c0,3.2-1.5,6.2-4,8.3l-0.4,0.3l0.3,0.4c1.2,1.8,1.8,3.9,1.8,6.1
		c0,0.1,0,0.2,0,0.3c-4.8,1.3-8.6,5.2-9.7,10.1c-1.1-3.8-4-6.9-7.9-8c-0.1,0-0.2-0.1-0.2-0.1c0.3-1.1,0.5-2.3,0.5-3.4
		c0-7.1-5.6-12.8-12.7-13c0-0.2,0-0.5,0-0.7c0-4.5-2.6-8.5-6.5-10.4C131.2,17.8,132.9,17.4,134.8,17.4z M101.5,17.4
		c0.4,0,0.9,0,1.3,0.1l0.7,0.1l-0.1-0.7c-0.2-0.9-0.3-1.7-0.3-2.6c0-6.6,5.4-12,12-12c6.6,0,12,5.4,12,12c0,1.2-0.2,2.4-0.5,3.5
		l-0.1,0.4l0.4,0.2c0.2,0.1,0.3,0.2,0.5,0.3c0,0,0.1,0,0.1,0.1l0.1,0.1c0.1,0,0.3,0.1,0.4,0.1c0.2,0.1,0.4,0.1,0.6,0.2
		c4,1.6,6.7,5.5,6.7,9.8c0,0.3,0,0.5,0,0.7c-4.7,0.2-8.8,2.9-10.9,6.8c-0.1,0.2-0.2,0.3-0.3,0.5c-0.1,0.2-0.2,0.4-0.3,0.5
		c-0.7,1.6-1.1,3.3-1.1,5.1c0,0.7,0.1,1.5,0.2,2.2c-5.8-0.3-10.9,3.2-13,8.2c-1.7,1.2-3.7,1.9-5.8,1.9c-5.4,0-9.9-4.4-9.9-9.9
		c0-1.4,0.3-2.8,0.9-4.1l0.2-0.4l-0.4-0.2c-3.6-2.3-5.8-6.2-5.8-10.5C89.1,22.9,94.6,17.4,101.5,17.4z M91,54.1
		c0,1.2-0.2,2.4-0.5,3.5L90.3,58l0.4,0.2c0.2,0.1,0.4,0.2,0.6,0.3l0.1,0.1c4.5,1.3,7.7,5.4,7.7,10.1c0,3.2-1.5,6.2-4,8.3l-0.4,0.3
		l0.3,0.4c0,0.1,0.1,0.1,0.1,0.2c-2.7,2.5-4.5,6-4.5,10c0,1.8,0.4,3.6,1.1,5.3c-1.7,1.1-3.7,1.7-5.9,1.7c-2.6,0-5.1-0.9-7-2.5
		l-0.8-0.7v12.1c-0.8,0.1-1.6,0.2-2.3,0.4V91.2L74.7,92c-1.7,1.7-4,2.6-6.4,2.8c-0.3-5.8-4.6-10.7-10.1-11.9c0.2-0.7,0.4-1.4,0.7-2
		l0.2-0.4l-0.4-0.2c-3.6-2.3-5.8-6.2-5.8-10.5c0-2.2,0.6-4.2,1.6-6c0.1-0.3,0.3-0.5,0.5-0.7c0.2-0.3,0.4-0.6,0.7-0.9
		c2.3-2.9,5.8-4.7,9.7-4.7c0.4,0,0.9,0,1.3,0.1l0.7,0.1l-0.1-0.7c-0.2-0.9-0.3-1.7-0.3-2.6c0-6.6,5.4-12,12-12
		c0.6,0,1.1,0.1,1.6,0.1c0.2,0,0.4,0,0.5,0.1c0.2,0,0.3,0.1,0.5,0.1C86.9,43.5,91,48.3,91,54.1z M71.4,119.1
		c1.2,1.8,1.8,3.9,1.8,6.1c0,5.8-4.6,10.6-10.3,11c-1.1-4.4-4.5-7.9-8.8-9.2c-0.2,0-0.3-0.1-0.5-0.1c-0.2,0-0.3-0.1-0.5-0.1
		c-0.9-0.2-1.8-0.3-2.8-0.3c-5.3,0-9.9,3.2-11.9,7.8c-2.4-1.8-3.9-4.7-3.9-7.9c0-1.4,0.3-2.8,0.9-4.1l0.2-0.4l-0.4-0.2
		c-1.5-1-2.8-2.2-3.8-3.7c-0.2-0.3-0.4-0.6-0.6-0.9c-0.2-0.3-0.3-0.6-0.4-0.9c-0.7-1.5-1-3.2-1-5c0-6.8,5.6-12.4,12.4-12.4
		c0.4,0,0.9,0,1.3,0.1l0.7,0.1l-0.1-0.7c-0.2-0.9-0.3-1.7-0.3-2.6c0-4,1.9-7.5,4.9-9.7c0.1-0.1,0.3-0.2,0.4-0.3
		c0.1-0.1,0.3-0.2,0.4-0.3c1.8-1.1,4-1.8,6.3-1.8c0.6,0,1.2,0.1,1.8,0.1c0.2,0,0.3,0,0.5,0.1c0.2,0,0.3,0.1,0.5,0.1
		c5.1,1.2,8.9,5.6,9.3,10.9c0,0.2,0,0.3,0,0.5c0,0.1,0,0.2,0,0.3c0,0.1,0,0.1,0,0.2c0,1.1-0.2,2.2-0.5,3.3l-0.1,0.4l0.4,0.2
		c0.2,0.1,0.4,0.2,0.6,0.3l0.1,0.1c2.6,0.7,4.7,2.4,6.1,4.5c0.1,0.1,0.2,0.3,0.3,0.4c0.1,0.1,0.2,0.3,0.2,0.4
		c0.1,0.2,0.2,0.3,0.2,0.5c0.3,0.6,0.5,1.2,0.6,1.9c0.2,0.8,0.3,1.6,0.3,2.4c0,3.2-1.5,6.2-4,8.3l-0.4,0.3L71.4,119.1z M48,25.8
		c0.4,0,0.9,0,1.3,0.1l0.7,0.1l-0.1-0.7c-0.2-0.9-0.3-1.7-0.3-2.6c0-6.6,5.4-12,12-12c6.6,0,12,5.4,12,12c0,1.2-0.2,2.4-0.5,3.5
		l-0.1,0.4l0.4,0.2c0.2,0.1,0.4,0.2,0.6,0.3l0.1,0.1c4.5,1.3,7.7,5.4,7.7,10.1c0,1.3-0.3,2.7-0.7,3.9c-0.7-0.1-1.4-0.2-2.1-0.2
		c-7.2,0-13,5.9-13,13c0,0.7,0.1,1.5,0.2,2.2c-0.2,0-0.5,0-0.7,0c-4.9,0-9.2,2.6-11.5,6.6c-1,0.4-2.2,0.6-3.3,0.6
		c-4.4,0-8.1-2.9-9.4-6.8c2.7-2.2,4.5-5.6,4.5-9.4c0-2.2-0.6-4.4-1.7-6.2c2.6-2.2,4-5.4,4-8.8c0-2.2-0.7-4.4-1.8-6.2
		C46.7,25.9,47.3,25.8,48,25.8z M0.8,33.1c0-6.8,5.6-12.4,12.4-12.4c0.4,0,0.9,0,1.3,0.1l0.7,0.1L15,20.1c-0.2-0.9-0.3-1.7-0.3-2.6
		c0-1.2,0.2-2.4,0.5-3.6c0-0.2,0.1-0.3,0.2-0.5c0.1-0.2,0.1-0.3,0.2-0.5c1.8-4.4,6.1-7.5,11.2-7.5c5.1,0,9.5,3.2,11.2,7.7
		c0.1,0.2,0.1,0.3,0.2,0.5c0.1,0.2,0.1,0.3,0.2,0.5c0.3,1.1,0.5,2.2,0.5,3.4c0,1.2-0.2,2.4-0.5,3.5l-0.1,0.4l0.4,0.2
		c0.2,0.1,0.4,0.2,0.6,0.3l0.1,0.1c2.1,0.6,3.8,1.8,5.1,3.3c0.1,0.1,0.2,0.3,0.3,0.4c0.1,0.1,0.2,0.3,0.3,0.4c1.2,1.7,1.9,3.8,1.9,6
		c0,3.2-1.5,6.2-4,8.3l-0.4,0.3l0.3,0.4c1.2,1.8,1.8,3.9,1.8,6.1c0,3.3-1.5,6.3-3.8,8.3c-0.1,0.1-0.3,0.2-0.4,0.4
		c-0.1,0.1-0.3,0.2-0.4,0.3c-1.8,1.3-4,2.1-6.4,2.1c-2.6,0-5.1-0.9-7-2.5L25.7,55v10.5c-0.8,0.3-1.6,0.7-2.3,1.1v-12l-0.8,0.8
		c-1.9,1.8-4.3,2.8-6.9,2.8c-5.4,0-9.9-4.4-9.9-9.9c0-1.4,0.3-2.8,0.9-4.1l0.2-0.4l-0.4-0.2C2.9,41.3,0.8,37.4,0.8,33.1z
		 M19.3,118.3c-2.7,0-5.2-1.1-7-2.9c-0.1-0.1-0.2-0.3-0.4-0.4c-0.1-0.1-0.2-0.3-0.4-0.4c-1.4-1.7-2.2-3.8-2.2-6.2
		c0-1.4,0.3-2.8,0.9-4.1l0.2-0.4l-0.4-0.2c-1.2-0.8-2.3-1.8-3.2-2.9c-0.2-0.3-0.4-0.6-0.6-0.8c-0.2-0.2-0.3-0.5-0.5-0.7
		c-0.2-0.4-0.5-0.9-0.7-1.4c-0.1-0.3-0.2-0.7-0.4-1c-0.2-0.6-0.4-1.3-0.4-1.9c0-0.3-0.1-0.7-0.1-1c0-0.2,0-0.5,0-0.7
		c0-0.5,0-1,0.1-1.4c0-0.3,0.1-0.7,0.2-1c1.1-5.7,6.2-9.9,12.2-9.9c0.4,0,0.9,0,1.3,0.1l0.7,0.1l-0.1-0.7c-0.2-0.9-0.3-1.7-0.3-2.6
		c0-3.6,1.6-6.9,4.2-9.1c0.2-0.1,0.3-0.3,0.5-0.4c0.2-0.1,0.3-0.3,0.5-0.4c0.7-0.5,1.5-0.9,2.3-1.3c0.2-0.1,0.3-0.1,0.5-0.2
		c0.2-0.1,0.3-0.1,0.5-0.2c1.1-0.3,2.3-0.5,3.5-0.5c6.6,0,12,5.4,12,12c0,1.2-0.2,2.4-0.5,3.5l-0.1,0.4l0.4,0.2
		c0.2,0.1,0.4,0.2,0.6,0.3l0.1,0.1c1.9,0.5,3.5,1.6,4.8,2.9c-3.2,2.4-5.2,6.2-5.2,10.4c0,0.7,0.1,1.5,0.2,2.2c-0.2,0-0.5,0-0.7,0
		c-7.4,0-13.4,6-13.4,13.4c0,1.7,0.3,3.3,0.9,4.9v14.4H27v-15.6l-0.8,0.8C24.3,117.4,21.8,118.3,19.3,118.3z M70.1,157
		c-0.1,0.2-0.1,0.4-0.2,0.6c-0.1,0.2-0.1,0.4-0.2,0.5c-0.7,1.6-1.7,3.1-3.2,4.2l-0.4,0.3l0.3,0.4c1.2,1.8,1.8,3.9,1.8,6.1
		c0,6.1-5,11-11,11c-2.6,0-5.1-0.9-7-2.5l-0.8-0.7v15.3h-0.2c-0.5-1.1-1.3-2.1-2.1-3v-12.7l-0.8,0.8c-1.2,1.2-2.7,2-4.3,2.4
		c-1.2-5.5-5.9-9.6-11.5-10.1c-0.2,0-0.3,0-0.5,0c-0.1,0-0.3,0-0.4,0c0.1-1.1,0.3-2.2,0.8-3.2c0-0.1,0.1-0.2,0.1-0.3l0.2-0.4
		l-0.4-0.2l0,0c-0.2-0.1-0.4-0.3-0.5-0.4c-2.5-1.8-4.3-4.4-4.9-7.4c0-0.2-0.1-0.4-0.1-0.7c0-0.2-0.1-0.4-0.1-0.6
		c-0.1-0.5-0.1-1-0.1-1.5c0-6.8,5.6-12.4,12.4-12.4c0.4,0,0.9,0,1.3,0.1l0.7,0.1l-0.1-0.7c-0.2-0.9-0.3-1.7-0.3-2.6
		c0-1.3,0.2-2.6,0.6-3.7c0.1-0.2,0.1-0.3,0.2-0.5c0.1-0.2,0.1-0.3,0.2-0.5c1.8-4.3,6.1-7.4,11.1-7.4c0.8,0,1.6,0.1,2.4,0.2
		c0.2,0,0.3,0.1,0.5,0.1c0.2,0,0.3,0.1,0.5,0.1c4,1.2,7.1,4.3,8.2,8.3c0,0.2,0.1,0.3,0.1,0.5c0,0.2,0.1,0.3,0.1,0.5
		c0.1,0.7,0.2,1.5,0.2,2.3c0,1.2-0.2,2.4-0.5,3.5l-0.1,0.4l0.4,0.2c0.2,0.1,0.4,0.2,0.6,0.3l0.1,0.1c4.5,1.3,7.7,5.4,7.7,10.1
		C70.5,155.1,70.3,156.1,70.1,157z M85.8,157.3c-2.6,0-5.1-0.9-7-2.5l-0.8-0.7v15.3h-2.3v-15.6l-0.8,0.8c-1,1-2.2,1.7-3.6,2.2
		c0.2-0.8,0.3-1.7,0.3-2.6c0-5.1-3.4-9.7-8.3-11.1c-0.1,0-0.2-0.1-0.2-0.1c0.3-1.1,0.5-2.3,0.5-3.4c0-0.8-0.1-1.6-0.2-2.3
		c6.2-0.5,11.1-5.7,11.1-12c0-2.2-0.6-4.4-1.7-6.2c2.6-2.2,4-5.4,4-8.8c0-0.8-0.1-1.6-0.3-2.4c0-0.2-0.1-0.3-0.1-0.5
		c0-0.2-0.1-0.3-0.1-0.5c-0.1-0.4-0.2-0.7-0.4-1.1c-0.1-0.2-0.2-0.4-0.3-0.6c0.1,0,0.2,0,0.3-0.1c0.7-0.2,1.5-0.4,2.3-0.4
		c0.2,0,0.3,0,0.5,0c0.2,0,0.3,0,0.5,0c0,0,0,0,0,0c6.6,0,12,5.4,12,12c0,1.2-0.2,2.4-0.5,3.5l-0.1,0.4l0.4,0.2
		c0.2,0.1,0.4,0.2,0.6,0.3l0.1,0.1c4.5,1.3,7.7,5.4,7.7,10.1c0,1.1-0.2,2.2-0.5,3.2c-6,1.3-10.5,6.7-10.5,13.1c0,3.1,1.1,6.1,3,8.4
		C89.5,156.8,87.7,157.3,85.8,157.3z M114.9,170.1l-0.2-0.2l-0.5-0.4l-0.1-0.1v15.3h-2.3v-15.6l-0.8,0.8c-1.8,1.7-4.2,2.7-6.7,2.8
		c-1.1-5-5.1-8.9-10-9.9c0-1.4,0.3-2.8,0.9-4.1l0.2-0.4l-0.4-0.2c-0.9-0.5-1.6-1.2-2.3-1.9c-0.1-0.1-0.2-0.2-0.3-0.4
		c-0.1-0.1-0.2-0.3-0.3-0.4c-1.8-2.2-2.8-4.9-2.8-7.9c0-5.7,3.8-10.5,9.1-11.9c0.2-0.1,0.4-0.1,0.6-0.2c0.2,0,0.4-0.1,0.6-0.1
		c0.7-0.1,1.4-0.2,2.2-0.2c0.4,0,0.9,0,1.3,0.1l0.7,0.1l-0.1-0.7c-0.2-0.9-0.3-1.7-0.3-2.6c0-6,4.5-11,10.2-11.9
		c0.2,0,0.3-0.1,0.5-0.1c0.2,0,0.3,0,0.5,0c0.3,0,0.5,0,0.8,0c0.5,0,1,0,1.5,0.1c0.2,0,0.3,0,0.5,0.1c0.2,0,0.3,0,0.5,0.1
		c5.4,1.2,9.5,6,9.5,11.8c0,1.2-0.2,2.4-0.5,3.5l-0.1,0.4l0.4,0.2c0.2,0.1,0.4,0.2,0.6,0.3l0.1,0.1c1.9,0.5,3.6,1.6,4.8,3
		c0.2,0.2,0.4,0.4,0.5,0.6c0.2,0.2,0.4,0.5,0.5,0.8c0.5,0.7,0.9,1.5,1.2,2.4c0.1,0.2,0.1,0.3,0.1,0.5c0,0.2,0.1,0.3,0.1,0.5
		c0.1,0.5,0.2,1.1,0.3,1.7c0,0.2,0,0.5,0,0.8c0,0.1,0,0.1,0,0.2c0,0.3,0,0.5,0,0.8c-0.3,2.9-1.7,5.5-3.9,7.3l-0.4,0.3l0.3,0.4
		c1.2,1.8,1.8,3.9,1.8,6.1c0,6.1-5,11-11,11c-2.4,0-4.8-0.8-6.7-2.3C115.1,170.3,115,170.2,114.9,170.1z M159.3,175.3
		c-0.2,0.2-0.3,0.4-0.5,0.7c-0.2,0.2-0.3,0.4-0.5,0.6c0,0-0.1,0.1-0.1,0.1c-0.2,0.2-0.4,0.3-0.6,0.5c-0.1,0.1-0.2,0.2-0.4,0.3
		l-0.2,0.2l-0.1,0.1l0.3,0.4c1.2,1.8,1.8,3.9,1.8,6.1c0,6.1-5,11-11,11c-2.6,0-5.1-0.9-7-2.5l-0.8-0.7v15.3h-2.3v-15.6l-0.8,0.8
		c-1.9,1.8-4.3,2.8-6.9,2.8c-5.4,0-9.9-4.4-9.9-9.9c0-1.4,0.3-2.8,0.9-4.1l0.2-0.4l-0.4-0.2c-3.2-2-5.2-5.3-5.7-8.9
		c2,1.3,4.3,2,6.6,2c6.6,0,12-5.4,12-12c0-2.2-0.6-4.4-1.7-6.2c2-1.8,3.4-4.1,3.8-6.8c0-0.2,0.1-0.4,0.1-0.6c0-0.2,0-0.5,0-0.7
		c0-0.2,0-0.4,0-0.7c0-1-0.1-2-0.4-2.9c1.6-0.8,3.4-1.2,5.3-1.2c6.6,0,12,5.4,12,12c0,1.2-0.2,2.4-0.5,3.5l-0.1,0.4l0.4,0.2
		c0.2,0.1,0.4,0.2,0.6,0.3l0.1,0.1c1.8,0.5,3.5,1.5,4.7,2.8c0.2,0.2,0.3,0.4,0.5,0.6c0.3,0.4,0.6,0.8,0.9,1.2c1,1.6,1.6,3.5,1.6,5.5
		C161.3,171.4,160.6,173.5,159.3,175.3z M175.4,147.5c1.2,1.8,1.8,3.9,1.8,6.1c0,6.1-5,11-11,11c-2,0-4-0.6-5.7-1.6
		c-1.5-2.3-3.8-4.1-6.5-4.9c-0.1,0-0.2-0.1-0.2-0.1c0.3-1.1,0.5-2.3,0.5-3.4c0-7.2-5.9-13-13-13c-2,0-3.9,0.5-5.6,1.3
		c-0.5-1.3-1.2-2.6-2.1-3.7c0.2-6.7,5.7-12,12.4-12c0.4,0,0.9,0,1.3,0.1l0.7,0.1l-0.2-0.7c-0.2-0.9-0.3-1.7-0.3-2.6
		c0-3.2,1.3-6.1,3.3-8.3c0.1-0.1,0.2-0.2,0.4-0.4c0.1-0.1,0.3-0.2,0.4-0.4c2.1-1.9,4.9-3,8-3c1.6,0,3.2,0.3,4.6,0.9c0,0,0.1,0,0.1,0
		c0.8,0.4,1.6,0.8,2.3,1.3c0.2,0.1,0.3,0.2,0.5,0.4c0.4,0.3,0.7,0.6,1.1,1c2.1,2.2,3.5,5.1,3.5,8.4c0,1.2-0.2,2.4-0.5,3.5l-0.1,0.4
		l0.4,0.2c0.2,0.1,0.4,0.2,0.6,0.3l0.1,0.1c4.5,1.3,7.7,5.4,7.7,10.1c0,3.2-1.5,6.2-4,8.3l-0.4,0.3L175.4,147.5z"/>
	<path class="st1" d="M16.3,184.8c-0.1-0.7-0.2-1.5-0.2-2.2c0-7,5.5-12.6,12.3-13c0.1-1.2,0.3-2.4,0.8-3.5c-3.1-2.1-5.1-5.3-5.7-9
		c-0.5-0.2-1-0.4-1.5-0.5l-0.1-0.1c-0.2-0.1-0.4-0.2-0.6-0.3L21,156l0.1-0.4c0.4-1.1,0.5-2.3,0.5-3.5c0-6.6-5.4-12-12-12
		c-3.9,0-7.4,1.9-9.6,4.8v47.9c1.6-0.2,3.1-0.9,4.4-1.8C7,187,11.4,184.6,16.3,184.8z"/>
	<path class="st1" d="M203.1,154.7l0.1,0.7l-0.7-0.1c-0.4,0-0.8-0.1-1.3-0.1c-6.8,0-12.4,5.6-12.4,12.4c0,4.3,2.2,8.2,5.8,10.5
		l0.4,0.2l-0.2,0.4c-0.6,1.3-0.9,2.7-0.9,4.1c0,2.9,1.3,5.6,3.3,7.4c0.3,0.2,0.6,0.4,0.8,0.7c1.6,1.1,3.6,1.8,5.7,1.8
		c0.5,0,1,0,1.4-0.1v-47.9c-1.5,2-2.5,4.5-2.5,7.3C202.8,153,202.9,153.9,203.1,154.7z"/>
	<path class="st1" d="M136.2,28.9c0,0.2,0,0.5,0,0.7c7,0.2,12.7,6,12.7,13c0,1.2-0.2,2.3-0.5,3.4c0.1,0,0.2,0.1,0.2,0.1
		c3.9,1.1,6.8,4.2,7.9,8c1.1-4.9,4.9-8.8,9.7-10.1c0-0.1,0-0.2,0-0.3c0-2.2-0.6-4.3-1.8-6.1l-0.3-0.4l0.4-0.3c2.5-2,4-5,4-8.3
		c0-4.7-3.2-8.9-7.7-10.1l-0.1-0.1c-0.2-0.1-0.4-0.2-0.6-0.3l-0.4-0.2l0.1-0.4c0.4-1.1,0.5-2.3,0.5-3.5c0-6.6-5.4-12-12-12
		c-6.6,0-12,5.4-12,12c0,0.9,0.1,1.8,0.3,2.6l0.2,0.7l-0.7-0.1c-0.4,0-0.8-0.1-1.3-0.1c-1.8,0-3.5,0.4-5.1,1.1
		C133.6,20.4,136.2,24.4,136.2,28.9z"/>
	<path class="st1" d="M14.6,12.7c1.9-4.8,6.6-8.2,12.1-8.2c5.6,0,10.4,3.5,12.2,8.5c4.7-1.3,8.1-5.6,8.1-10.6c0-0.8-0.1-1.6-0.2-2.3
		H8.9C8.5,1.1,8.3,2.3,8.3,3.5C8.3,7.7,10.9,11.3,14.6,12.7z"/>
	<path class="st1" d="M161.1,1.3L161,1.7c-0.6,1.3-0.9,2.7-0.9,4.1c0,5.4,4.4,9.9,9.9,9.9c2.6,0,5-1,6.9-2.8l0.8-0.8v15.6h2.3V12.5
		l0.8,0.7c2,1.6,4.5,2.5,7,2.5c6.1,0,11-5,11-11c0-1.6-0.4-3.2-1-4.7h-38.5c0.5,0.4,0.9,0.8,1.5,1.1L161.1,1.3z"/>
	<path class="st1" d="M196.8,208.2l0.4-0.3c2.5-2,4-5,4-8.3c0-3.1-1.4-6-3.6-7.9c-0.3-0.2-0.6-0.4-0.8-0.7c-1-0.7-2.1-1.2-3.2-1.6
		l-0.1-0.1c-0.2-0.1-0.4-0.2-0.6-0.3l-0.4-0.2l0.1-0.4c0.3-1.1,0.5-2.3,0.5-3.5c0-6.6-5.4-12-12-12s-12,5.4-12,12
		c0,0.9,0.1,1.8,0.3,2.6l0.2,0.7l-0.7-0.1c-0.4,0-0.8-0.1-1.3-0.1c-6.8,0-12.4,5.6-12.4,12.4c0,3.7,1.6,7.1,4.3,9.4h38.5
		c-0.2-0.5-0.5-1-0.8-1.4L196.8,208.2z"/>
	<path class="st1" d="M94.9,40.3l0.4,0.2l-0.2,0.4c-0.6,1.3-0.9,2.7-0.9,4.1c0,5.4,4.4,9.9,9.9,9.9c2.1,0,4.2-0.7,5.8-1.9
		c2.1-5,7.2-8.5,13-8.2c-0.1-0.7-0.2-1.5-0.2-2.2c0-1.8,0.4-3.5,1.1-5.1c-1.6-2.2-2.4-4.9-2.4-7.7c0-4.7,2.4-8.8,6-11.2
		c-0.2-0.1-0.3-0.2-0.5-0.3l-0.4-0.2l0.1-0.4c0.4-1.1,0.5-2.3,0.5-3.5c0-6.6-5.4-12-12-12c-6.6,0-12,5.4-12,12
		c0,0.9,0.1,1.8,0.3,2.6l0.1,0.7l-0.7-0.1c-0.4,0-0.8-0.1-1.3-0.1c-6.8,0-12.4,5.6-12.4,12.4C89.1,34.1,91.2,38,94.9,40.3z"/>
	<path class="st1" d="M122.3,29.8c0,2.4,0.7,4.7,2,6.7c2.1-3.9,6.2-6.6,10.9-6.8c0-0.2,0-0.5,0-0.7c0-4.3-2.7-8.2-6.7-9.8
		C124.8,21.2,122.3,25.2,122.3,29.8z"/>
	<path class="st1" d="M121.3,29.8c0,2.8,0.9,5.5,2.4,7.7c0.1-0.2,0.2-0.4,0.3-0.5c-1.4-2.1-2.2-4.5-2.2-7.2c0-4.6,2.4-8.7,6.1-10.9
		c-0.1,0-0.2-0.1-0.4-0.1l-0.1-0.1c0,0-0.1,0-0.1-0.1C123.7,21,121.3,25.1,121.3,29.8z"/>
	<path class="st1" d="M121.8,29.8c0,2.7,0.8,5.1,2.2,7.2c0.1-0.2,0.2-0.4,0.3-0.5c-1.3-2-2-4.2-2-6.7c0-4.6,2.5-8.6,6.2-10.7
		c-0.2-0.1-0.4-0.1-0.6-0.2C124.3,21.1,121.8,25.2,121.8,29.8z"/>
	<path class="st1" d="M110.7,53.6c-0.6,1.4-0.9,3-0.9,4.6c0,1.1,0.1,2.2,0.4,3.2c0.2-0.1,0.3-0.2,0.5-0.3L110.7,53.6
		C110.7,53.6,110.7,53.6,110.7,53.6z"/>
	<path class="st1" d="M142.6,83.3c0.1,0,0.2,0,0.3,0c2.1-3,5.4-5,9.2-5.5c0.9-1.6,1.5-3.5,1.5-5.5c0-2.2-0.6-4.3-1.8-6.1l-0.3-0.4
		l0.4-0.3c2.5-2,4-5,4-8.3c0-0.5,0-1-0.1-1.4c-0.2,0-0.4,0-0.7,0c-2.5,0-4.9-0.8-6.9-2.1V68H144V53.6c-1.9,1.5-4.2,2.3-6.7,2.3
		c-2.9,0-5.5-1.1-7.5-3c-2.1,1.9-4.9,3-7.9,3c-2.5,0-4.9-0.8-6.9-2.1v5.6c0.8-0.2,1.7-0.3,2.5-0.3c7.2,0,13,5.9,13,13
		c0,1.2-0.2,2.3-0.5,3.4c0.1,0,0.2,0.1,0.2,0.1c3.3,1,6,3.4,7.3,6.4C139.3,82.9,140.9,83.3,142.6,83.3z"/>
	<path class="st1" d="M132.2,37.6c1.1,1.9,1.7,4,1.7,6.2c0,3.2-1.3,6.2-3.4,8.4c1.8,1.7,4.1,2.7,6.7,2.7c2.6,0,5-1,6.9-2.8l0.8-0.8
		V67h2.3V51.7l0.8,0.7c2,1.6,4.5,2.5,7,2.5c0.2,0,0.3,0,0.5,0c-0.9-3.7-3.7-6.7-7.4-7.7l-0.1-0.1c-0.2-0.1-0.4-0.2-0.6-0.3l-0.4-0.2
		l0.1-0.4c0.4-1.1,0.5-2.3,0.5-3.5c0-6.5-5.3-11.9-11.8-12C135.7,33.3,134.3,35.8,132.2,37.6z"/>
	<path class="st1" d="M147.8,52.8v14.7h-3.3v-15c-1.9,1.8-4.4,2.9-7.2,2.9c-2.8,0-5.2-1.1-7.1-2.8c-0.1,0.1-0.2,0.2-0.4,0.3
		c1.9,1.9,4.6,3,7.5,3c2.5,0,4.8-0.8,6.7-2.3V68h4.3V53.8c2,1.4,4.4,2.1,6.9,2.1c0.2,0,0.4,0,0.7,0c0-0.2,0-0.3-0.1-0.5
		c-0.2,0-0.4,0-0.6,0C152.4,55.4,149.8,54.4,147.8,52.8z"/>
	<path class="st1" d="M148.1,52.4l-0.8-0.7V67H145V51.3l-0.8,0.8c-1.9,1.8-4.3,2.8-6.9,2.8c-2.6,0-5-1-6.7-2.7
		c-0.1,0.1-0.2,0.2-0.4,0.4c1.9,1.8,4.4,2.8,7.1,2.8c2.8,0,5.3-1.1,7.2-2.9v15h3.3V52.8c2,1.7,4.6,2.7,7.4,2.7c0.2,0,0.4,0,0.6,0
		c0-0.2-0.1-0.3-0.1-0.5c-0.2,0-0.3,0-0.5,0C152.6,54.9,150.1,54,148.1,52.4z"/>
	<path class="st1" d="M114.9,52.4c2,1.6,4.5,2.5,7,2.5c2.8,0,5.3-1,7.2-2.7c-1.7-1.9-2.7-4.4-2.7-7.1c0-1.4,0.3-2.8,0.8-4.1
		c-1-0.7-2-1.5-2.7-2.5c-0.5,1.3-0.8,2.7-0.8,4.2c0,0.9,0.1,1.8,0.3,2.6l0.1,0.7l-0.7-0.1c-0.4,0-0.8-0.1-1.3-0.1
		c-4.4,0-8.3,2.3-10.5,5.8v8.9c0.7-0.4,1.5-0.7,2.3-0.9v-7.9L114.9,52.4z"/>
	<path class="st1" d="M128.1,40.3l0.4,0.2l-0.2,0.4c-0.6,1.3-0.9,2.7-0.9,4.1c0,2.5,0.9,4.7,2.4,6.5c1.9-2,3.1-4.7,3.1-7.6
		c0-2.2-0.6-4.3-1.8-6.1l-0.3-0.4l0.4-0.3c2.1-1.6,3.4-4,3.8-6.5c-4.4,0.3-8.2,3-10.1,6.8C125.8,38.5,126.9,39.5,128.1,40.3z"/>
	<path class="st1" d="M127.3,40.9c-0.5,1.3-0.8,2.7-0.8,4.1c0,2.7,1,5.2,2.7,7.1c0.1-0.1,0.2-0.2,0.4-0.3c-1.6-1.8-2.6-4.2-2.6-6.8
		c0-1.5,0.3-3,0.9-4.3c-1.2-0.8-2.3-1.7-3.2-2.8c-0.1,0.2-0.1,0.4-0.2,0.5C125.3,39.4,126.2,40.2,127.3,40.9z"/>
	<path class="st1" d="M127.9,40.7c-0.6,1.3-0.9,2.8-0.9,4.3c0,2.6,1,5,2.6,6.8c0.1-0.1,0.2-0.2,0.4-0.4c-1.5-1.7-2.4-4-2.4-6.5
		c0-1.4,0.3-2.8,0.9-4.1l0.2-0.4l-0.4-0.2c-1.3-0.8-2.3-1.8-3.2-2.9c-0.1,0.2-0.2,0.3-0.2,0.5C125.6,39,126.7,40,127.9,40.7z"/>
	<path class="st1" d="M111.2,52.5c-0.2,0.4-0.4,0.7-0.5,1.1c0,0,0,0,0,0v7.5c0.2-0.1,0.3-0.2,0.5-0.3L111.2,52.5
		C111.2,52.5,111.2,52.5,111.2,52.5z"/>
	<path class="st1" d="M121.9,55.9c3,0,5.8-1.1,7.9-3c-0.1-0.1-0.2-0.2-0.4-0.3c-2,1.8-4.7,2.8-7.6,2.8c-2.8,0-5.4-1-7.4-2.7v6.8
		c0.2,0,0.3-0.1,0.5-0.1v-5.6C117.1,55.2,119.5,55.9,121.9,55.9z"/>
	<path class="st1" d="M131.5,37.5c1.2,1.8,1.9,4,1.9,6.3c0,3.1-1.2,5.9-3.2,8c0.1,0.1,0.2,0.2,0.4,0.3c2.1-2.2,3.4-5.1,3.4-8.4
		c0-2.2-0.6-4.4-1.7-6.2c2.1-1.8,3.5-4.3,3.9-7c-0.1,0-0.2,0-0.3,0c-0.1,0-0.1,0-0.2,0C135.1,33.4,133.7,35.8,131.5,37.5z"/>
	<path class="st1" d="M129.8,52.2c-0.1,0.1-0.2,0.2-0.4,0.3c0.1,0.1,0.2,0.2,0.4,0.3c0.1-0.1,0.2-0.2,0.4-0.3
		C130.1,52.5,130,52.4,129.8,52.2z"/>
	<path class="st1" d="M130.2,52.6c0.1-0.1,0.2-0.2,0.4-0.4c-0.1-0.1-0.2-0.2-0.4-0.3c-0.1,0.1-0.2,0.2-0.4,0.4
		C130,52.4,130.1,52.5,130.2,52.6z"/>
	<path class="st1" d="M121.9,55.4c2.9,0,5.5-1.1,7.6-2.8c-0.1-0.1-0.2-0.2-0.3-0.4c-1.9,1.7-4.5,2.7-7.2,2.7c-2.6,0-5.1-0.9-7-2.5
		l-0.8-0.7v7.9c0.2,0,0.3-0.1,0.5-0.1v-6.8C116.5,54.4,119.1,55.4,121.9,55.4z"/>
	<path class="st1" d="M111.2,52.5C111.2,52.5,111.2,52.5,111.2,52.5l0,8.3c0.2-0.1,0.3-0.2,0.5-0.3v-8.9
		C111.5,51.9,111.4,52.2,111.2,52.5z"/>
	<path class="st1" d="M131.2,37.1l-0.4,0.3l0.3,0.4c1.2,1.8,1.8,3.9,1.8,6.1c0,3-1.2,5.6-3.1,7.6c0.1,0.1,0.2,0.3,0.3,0.4
		c2-2.1,3.2-4.9,3.2-8c0-2.3-0.7-4.5-1.9-6.3c2.1-1.7,3.6-4.1,4-6.9c-0.2,0-0.3,0-0.5,0C134.6,33.2,133.3,35.5,131.2,37.1z"/>
	<path class="st1" d="M129.5,51.9c-0.1,0.1-0.2,0.2-0.4,0.3c0.1,0.1,0.2,0.3,0.3,0.4c0.1-0.1,0.2-0.2,0.4-0.3
		C129.7,52.1,129.6,52,129.5,51.9z"/>
	<path class="st1" d="M130.2,51.9c-0.1-0.1-0.2-0.2-0.3-0.4c-0.1,0.1-0.2,0.2-0.4,0.4c0.1,0.1,0.2,0.3,0.3,0.4
		C130,52.1,130.1,52,130.2,51.9z"/>
	<path class="st1" d="M43.9,40.9c1.1,1.9,1.7,4,1.7,6.2c0,3.8-1.8,7.2-4.5,9.4c1.3,4,5,6.8,9.4,6.8c1.1,0,2.3-0.2,3.3-0.6
		c2.3-3.9,6.6-6.6,11.5-6.6c0.2,0,0.5,0,0.7,0c-0.1-0.7-0.2-1.5-0.2-2.2c0-7.2,5.9-13,13-13c0.7,0,1.4,0.1,2.1,0.2
		c0.5-1.2,0.7-2.5,0.7-3.9c0-4.7-3.2-8.9-7.7-10.1l-0.1-0.1c-0.2-0.1-0.4-0.2-0.6-0.3l-0.4-0.2l0.1-0.4c0.4-1.1,0.5-2.3,0.5-3.5
		c0-6.6-5.4-12-12-12c-6.6,0-12,5.4-12,12c0,0.9,0.1,1.8,0.3,2.6l0.1,0.7l-0.7-0.1c-0.4,0-0.8-0.1-1.3-0.1c-0.6,0-1.3,0.1-1.9,0.2
		c1.1,1.8,1.8,3.9,1.8,6.2C47.9,35.5,46.4,38.7,43.9,40.9z"/>
	<path class="st1" d="M157.3,55.7c-0.1,0.5-0.1,0.9-0.1,1.4c0,2.9,1,5.6,2.7,7.8c2.1-1.5,4.7-2.4,7.5-2.4c7.2,0,13,5.9,13,13
		c0,1.2-0.2,2.3-0.5,3.4c0.1,0,0.2,0.1,0.2,0.1c0.7,0.2,1.3,0.5,1.9,0.8V79l0.8,0.7c2,1.6,4.5,2.5,7,2.5c6.1,0,11-5,11-11
		c0-2.2-0.6-4.3-1.8-6.1l-0.3-0.4l0.4-0.3c2.5-2,4-5,4-8.3c0-4.7-3.2-8.9-7.7-10.1l-0.1-0.1c-0.2-0.1-0.4-0.2-0.6-0.3l-0.4-0.2
		l0.1-0.4c0.4-1.1,0.5-2.3,0.5-3.5c0-6.6-5.4-12-12-12c-6.6,0-12,5.4-12,12c0,0.9,0.1,1.8,0.3,2.6l0.2,0.7l-0.7-0.1
		c-0.4,0-0.8-0.1-1.3-0.1c-0.8,0-1.7,0.1-2.5,0.2C166.7,50.4,162.6,54.8,157.3,55.7z"/>
	<path class="st1" d="M166.1,45.2c-4.4,1.3-7.8,4.9-8.7,9.5C162,53.7,165.6,49.9,166.1,45.2z"/>
	<path class="st1" d="M167.2,44.9c-0.2,0-0.3,0.1-0.5,0.1c-0.5,5.1-4.3,9.2-9.3,10.1c0,0.2-0.1,0.3-0.1,0.5
		C162.6,54.8,166.7,50.4,167.2,44.9z"/>
	<path class="st1" d="M166.7,45.1c-0.2,0-0.4,0.1-0.5,0.1c-0.6,4.7-4.1,8.5-8.7,9.5c0,0.2-0.1,0.3-0.1,0.5
		C162.3,54.3,166.1,50.1,166.7,45.1z"/>
	<path class="st1" d="M183.2,81.6v13.6h-4.3V80.9c-1.9,1.5-4.2,2.3-6.7,2.3c-6,0-10.9-4.9-10.9-10.9c0-1.4,0.3-2.8,0.8-4.1
		c-0.9-0.6-1.6-1.3-2.3-2c-2.7,2.2-4.4,5.6-4.4,9.3c0,0.9,0.1,1.8,0.3,2.6l0.2,0.7l-0.7-0.1c-0.4,0-0.8-0.1-1.3-0.1
		c-0.4,0-0.7,0-1.1,0.1c-2,3.1-5.4,5.3-9.3,5.5c-1.3,2-2,4.3-2,6.8c0,4.3,2.2,8.2,5.8,10.5l0.4,0.2l-0.2,0.4
		c-0.6,1.3-0.9,2.7-0.9,4.1c0,3.2,1.6,6.1,4,7.9c2.3-2.1,5.4-3.5,8.8-3.5c3.6,0,6.9,1.5,9.2,3.8c0.9,0.6,2,1,3,1.2
		c-0.6-1.5-0.9-3.1-0.9-4.8c0-7.4,6-13.4,13.4-13.4c0.1,0,0.2,0,0.3,0c0.1-0.1,0.2-0.2,0.3-0.4c-0.1-0.6-0.1-1.2-0.1-1.8
		c0-2.9,1-5.6,2.6-7.8C186.7,85.3,185.2,83.1,183.2,81.6z"/>
	<path class="st1" d="M151.4,78.9c-2.9,0.6-5.4,2.1-7.2,4.3C147.2,82.8,149.7,81.2,151.4,78.9z"/>
	<path class="st1" d="M152.8,78.8c-0.2,0-0.4,0-0.6,0.1c-1.9,2.7-4.9,4.6-8.3,4.9c-0.1,0.2-0.3,0.3-0.4,0.5
		C147.4,84,150.8,81.9,152.8,78.8z"/>
	<path class="st1" d="M152.2,78.8c-0.2,0-0.5,0.1-0.7,0.1c-1.7,2.3-4.2,3.8-7.2,4.3c-0.2,0.2-0.3,0.4-0.4,0.6
		C147.3,83.4,150.3,81.5,152.2,78.8z"/>
	<path class="st1" d="M163.4,67.8l-0.2,0.4c-0.6,1.3-0.9,2.7-0.9,4.1c0,5.4,4.4,9.9,9.9,9.9c2.5,0,4.9-1,6.8-2.7l-0.1-0.1l0.1-0.4
		c0.4-1.1,0.5-2.3,0.5-3.5c0-6.6-5.4-12-12-12c-2.5,0-4.9,0.8-6.8,2.1c0.7,0.7,1.5,1.4,2.4,2L163.4,67.8z"/>
	<path class="st1" d="M182.2,94.3V81c-0.7-0.4-1.5-0.7-2.3-0.9l0,0v14.2H182.2z"/>
	<path class="st1" d="M161.3,72.4c0,6,4.9,10.9,10.9,10.9c2.5,0,4.8-0.8,6.7-2.3v14.4h4.3V81.6c-0.2-0.1-0.3-0.2-0.5-0.3v13.5h-3.3
		v-15c-1.9,1.8-4.4,2.9-7.2,2.9c-5.7,0-10.4-4.6-10.4-10.4c0-1.5,0.3-3,0.9-4.3c-0.9-0.6-1.8-1.3-2.5-2.1c-0.1,0.1-0.3,0.2-0.4,0.3
		c0.7,0.7,1.5,1.4,2.3,2C161.6,69.5,161.3,70.9,161.3,72.4z"/>
	<path class="st1" d="M161.8,72.4c0,5.7,4.6,10.4,10.4,10.4c2.8,0,5.3-1.1,7.2-2.9v15h3.3V81.3c-0.2-0.1-0.3-0.2-0.5-0.3v13.3h-2.3
		V80l-0.1,0c-0.2-0.1-0.4-0.2-0.6-0.3l-0.3-0.1c-1.8,1.7-4.2,2.7-6.8,2.7c-5.4,0-9.9-4.4-9.9-9.9c0-1.4,0.3-2.8,0.9-4.1l0.2-0.4
		l-0.4-0.2c-0.9-0.6-1.7-1.2-2.4-2c-0.1,0.1-0.3,0.2-0.4,0.3c0.8,0.8,1.6,1.5,2.5,2.1C162.1,69.3,161.8,70.8,161.8,72.4z"/>
	<path class="st1" d="M179.5,138.5c0-4.7-3.2-8.9-7.7-10.1l-0.1-0.1c-0.2-0.1-0.4-0.2-0.6-0.3l-0.4-0.2l0.1-0.4
		c0.3-1.1,0.5-2.3,0.5-3.5c0-3.3-1.3-6.3-3.5-8.4c-0.2-0.1-0.4-0.2-0.6-0.4v14.2h-4.3v-14.4c-1.9,1.5-4.2,2.3-6.7,2.3
		c-2.1,0-4.1-0.6-5.7-1.7c-2.1,2.2-3.3,5.1-3.3,8.3c0,0.9,0.1,1.8,0.3,2.6l0.2,0.7l-0.7-0.1c-0.4,0-0.8-0.1-1.3-0.1
		c-6.7,0-12.2,5.4-12.4,12c0.9,1.1,1.7,2.3,2.1,3.7c1.7-0.8,3.6-1.3,5.6-1.3c7.2,0,13,5.9,13,13c0,1.2-0.2,2.3-0.5,3.4
		c0.1,0,0.2,0.1,0.2,0.1c2.7,0.8,5,2.6,6.5,4.9c1.7,1.1,3.7,1.6,5.7,1.6c6.1,0,11-5,11-11c0-2.2-0.6-4.3-1.8-6.1l-0.3-0.4l0.4-0.3
		C178.1,144.8,179.5,141.8,179.5,138.5z"/>
	<path class="st1" d="M166.4,128.3v-14.2c-0.7-0.5-1.5-1-2.3-1.3v15.5H166.4z"/>
	<path class="st1" d="M163.2,113.5l0.7-0.7c-1.4-0.6-3-0.9-4.6-0.9c-3.1,0-5.8,1.2-8,3c1.5,0.9,3.2,1.4,5,1.4
		C159,116.2,161.4,115.2,163.2,113.5z"/>
	<path class="st1" d="M163.1,114.9v14.4h4.3v-14.2c0.2,0.1,0.4,0.2,0.6,0.4c-0.3-0.3-0.7-0.7-1.1-1v14.3h-3.3v-15
		c-1.9,1.8-4.4,2.9-7.2,2.9c-2,0-3.8-0.6-5.4-1.5c-0.1,0.1-0.2,0.2-0.4,0.4c1.7,1,3.6,1.7,5.7,1.7
		C158.8,117.2,161.2,116.4,163.1,114.9z"/>
	<path class="st1" d="M163.6,113.8v15h3.3v-14.3c-0.2-0.1-0.3-0.3-0.5-0.4v14.2h-2.3v-15.5c0,0-0.1,0-0.1,0l-0.7,0.7
		c-1.9,1.8-4.3,2.8-6.9,2.8c-1.8,0-3.5-0.5-5-1.4c-0.1,0.1-0.3,0.2-0.4,0.4c1.6,1,3.4,1.5,5.4,1.5
		C159.2,116.7,161.7,115.6,163.6,113.8z"/>
	<path class="st1" d="M159.3,163.4v11.9c1.3-1.8,2-3.9,2-6.1c0-2-0.6-3.9-1.6-5.5C159.6,163.6,159.5,163.5,159.3,163.4z"/>
	<path class="st1" d="M155,163.2c-1.9,1.5-4.2,2.3-6.7,2.3c-6,0-10.9-4.9-10.9-10.9c0-1.4,0.3-2.8,0.8-4.1c-0.8-0.6-1.6-1.2-2.3-1.9
		c-0.5,2.6-1.8,5-3.8,6.8c1.1,1.9,1.7,4,1.7,6.2c0,6.6-5.4,12-12,12c-2.4,0-4.7-0.7-6.6-2c0.5,3.7,2.5,6.9,5.7,8.9l0.4,0.2l-0.2,0.4
		c-0.6,1.3-0.9,2.7-0.9,4.1c0,5.4,4.4,9.9,9.9,9.9c2.6,0,5-1,6.9-2.8l0.8-0.8v15.6h2.3V192l0.8,0.7c2,1.6,4.5,2.5,7,2.5
		c6.1,0,11-5,11-11c0-2.2-0.6-4.3-1.8-6.1l-0.3-0.4l0.1-0.1H155V163.2z"/>
	<path class="st1" d="M153.6,159l-0.1-0.1c-0.2-0.1-0.4-0.2-0.6-0.3l-0.4-0.2l0.1-0.4c0.3-1.1,0.5-2.3,0.5-3.5c0-6.6-5.4-12-12-12
		c-1.9,0-3.7,0.5-5.3,1.2c0.2,0.9,0.4,1.9,0.4,2.9c0,0.2,0,0.4,0,0.7c0.8,1,1.8,1.9,3,2.7l0.4,0.2l-0.2,0.4
		c-0.6,1.3-0.9,2.7-0.9,4.1c0,5.4,4.4,9.9,9.9,9.9c2.6,0,5-1,6.9-2.8l0.8-0.8v15.6h2.2c0,0,0.1-0.1,0.1-0.1v-14.6
		C157.1,160.5,155.5,159.5,153.6,159z"/>
	<path class="st1" d="M155.5,162.1c-1.9,1.8-4.4,2.9-7.2,2.9c-5.7,0-10.4-4.6-10.4-10.4c0-1.5,0.3-3,0.9-4.3c-1-0.7-2-1.5-2.8-2.4
		c0,0.2-0.1,0.4-0.1,0.6c0.7,0.7,1.4,1.4,2.3,1.9c-0.5,1.3-0.8,2.7-0.8,4.1c0,6,4.9,10.9,10.9,10.9c2.5,0,4.8-0.8,6.7-2.3v14.4h2.1
		l0.2-0.2c0.1-0.1,0.2-0.2,0.4-0.3h-2.1V162.1z"/>
	<path class="st1" d="M159.7,163.7c-0.3-0.4-0.6-0.8-0.9-1.2v13.5c0.2-0.2,0.3-0.4,0.5-0.7v-11.9
		C159.5,163.5,159.6,163.6,159.7,163.7z"/>
	<path class="st1" d="M158.3,161.9v14.6c0.2-0.2,0.3-0.4,0.5-0.6v-13.5C158.7,162.2,158.5,162,158.3,161.9z"/>
	<path class="st1" d="M156,161l-0.8,0.8c-1.9,1.8-4.3,2.8-6.9,2.8c-5.4,0-9.9-4.4-9.9-9.9c0-1.4,0.3-2.8,0.9-4.1l0.2-0.4l-0.4-0.2
		c-1.2-0.7-2.2-1.7-3-2.7c0,0.2,0,0.5,0,0.7c0.8,0.9,1.7,1.7,2.8,2.4c-0.6,1.3-0.9,2.8-0.9,4.3c0,5.7,4.6,10.4,10.4,10.4
		c2.8,0,5.3-1.1,7.2-2.9v15h2.1c0.2-0.2,0.4-0.3,0.6-0.5H156V161z"/>
	<path class="st1" d="M78.7,46.1c1.1,1.9,1.7,4,1.7,6.2c0,6.6-5.4,12-12,12c-2.5,0-4.9-0.8-6.9-2.1v14.2h-4.3V62
		c-0.8,0.7-1.8,1.2-2.7,1.6c-1,1.8-1.6,3.8-1.6,6c0,4.3,2.2,8.2,5.8,10.5l0.4,0.2l-0.2,0.4c-0.3,0.7-0.5,1.3-0.7,2
		c5.6,1.3,9.8,6.1,10.1,11.9c2.4-0.1,4.7-1.1,6.4-2.8l0.8-0.8V104c0.7-0.2,1.5-0.3,2.3-0.4V91.5l0.8,0.7c2,1.6,4.5,2.5,7,2.5
		c2.2,0,4.2-0.6,5.9-1.7c-0.7-1.6-1.1-3.4-1.1-5.3c0-4,1.7-7.5,4.5-10c0-0.1-0.1-0.1-0.1-0.2l-0.3-0.4l0.4-0.3c2.5-2,4-5,4-8.3
		c0-4.7-3.2-8.9-7.7-10.1l-0.1-0.1c-0.2-0.1-0.4-0.2-0.6-0.3L90.3,58l0.1-0.4c0.4-1.1,0.5-2.3,0.5-3.5c0-5.7-4-10.5-9.4-11.7
		C80.9,43.7,79.9,45,78.7,46.1z"/>
	<path class="st1" d="M58.2,59.8v15.6h2.3V60.1l0.8,0.7c2,1.6,4.5,2.5,7,2.5c6.1,0,11-5,11-11c0-2.2-0.6-4.3-1.8-6.1l-0.3-0.4
		l0.4-0.3c1.2-1,2.1-2.1,2.8-3.4C80,42.1,79.5,42,78.9,42c-6.6,0-12,5.4-12,12c0,0.9,0.1,1.8,0.3,2.6l0.1,0.7l-0.7-0.1
		c-0.4,0-0.8-0.1-1.3-0.1c-3.9,0-7.4,1.8-9.7,4.7c0.6-0.4,1.2-0.8,1.8-1.3L58.2,59.8z"/>
	<path class="st1" d="M57.2,76.4h4.3V62.2c2,1.4,4.4,2.1,6.9,2.1c6.6,0,12-5.4,12-12c0-2.2-0.6-4.4-1.7-6.2c1.2-1.1,2.2-2.3,2.9-3.8
		c-0.2,0-0.3-0.1-0.5-0.1c-0.7,1.5-1.8,2.7-3,3.8c1.2,1.8,1.9,4,1.9,6.3c0,6.4-5.2,11.5-11.5,11.5c-2.8,0-5.4-1-7.4-2.7v14.7h-3.3
		v-15c-0.8,0.8-1.7,1.4-2.8,1.9c-0.2,0.2-0.3,0.5-0.5,0.7c1-0.4,1.9-0.9,2.7-1.6V76.4z"/>
	<path class="st1" d="M57.7,75.9H61V61.2c2,1.7,4.6,2.7,7.4,2.7c6.4,0,11.5-5.2,11.5-11.5c0-2.3-0.7-4.5-1.9-6.3
		c1.3-1,2.3-2.3,3-3.8c-0.2,0-0.4-0.1-0.5-0.1c-0.7,1.3-1.6,2.5-2.8,3.4l-0.4,0.3l0.3,0.4c1.2,1.8,1.8,3.9,1.8,6.1c0,6.1-5,11-11,11
		c-2.6,0-5.1-0.9-7-2.5l-0.8-0.7v15.3h-2.3V59.8l-0.8,0.8c-0.5,0.5-1.1,1-1.8,1.3c-0.2,0.3-0.5,0.6-0.7,0.9c1-0.5,2-1.1,2.8-1.9
		V75.9z"/>
	<path class="st1" d="M131.5,82c-1.9,1.5-4.2,2.3-6.7,2.3c-6,0-10.9-4.9-10.9-10.9c0-1.4,0.3-2.8,0.8-4.1c-0.6-0.4-1.2-0.9-1.7-1.4
		h-2.3v-2.8c-0.4-0.7-0.7-1.3-1-2c-2.6,2.2-4.2,5.5-4.2,9.1c0,0.9,0.1,1.8,0.3,2.6l0.1,0.7l-0.7-0.1c-0.4,0-0.8-0.1-1.3-0.1
		c-2.9,0-5.6,1-7.7,2.7c0.9,1.7,1.5,3.7,1.5,5.7c0,3.9-1.9,7.4-4.9,9.6c1,2,2.5,3.7,4.5,4.9l0.4,0.2l-0.2,0.4
		c-0.6,1.3-0.9,2.7-0.9,4.1c0,5.4,4.4,9.9,9.9,9.9c2.6,0,5-1,6.9-2.8l0.8-0.8v9.7c0.3,0,0.5,0,0.8,0c0.5,0,1,0,1.5,0.1v-9.3l0.8,0.7
		c2,1.6,4.5,2.5,7,2.5c6.1,0,11-5,11-11c0-1.9-0.5-3.8-1.5-5.5h-2.5V82z"/>
	<path class="st1" d="M135.8,92.9c1.3-1.8,2-3.9,2-6.1c0-1.4-0.3-2.7-0.8-3.9c-0.4-0.2-0.8-0.4-1.2-0.7V92.9z"/>
	<path class="st1" d="M111.7,67h0.3c-0.1-0.1-0.2-0.3-0.3-0.4V67z"/>
	<path class="st1" d="M111.2,67.5v-1.5c-0.2-0.3-0.3-0.5-0.5-0.8V68h2.3c-0.2-0.2-0.3-0.3-0.5-0.5H111.2z"/>
	<path class="st1" d="M111.7,67v-0.4c-0.2-0.2-0.3-0.4-0.5-0.6v1.5h1.3c-0.2-0.2-0.3-0.3-0.5-0.5H111.7z"/>
	<path class="st1" d="M110.7,62.3c-0.1,0-0.1,0.1-0.2,0.1c0.1,0.2,0.1,0.3,0.2,0.5V62.3z"/>
	<path class="st1" d="M114.5,68c0.3,0.3,0.7,0.5,1.1,0.8L116,69l-0.2,0.4c-0.6,1.3-0.9,2.7-0.9,4.1c0,5.4,4.4,9.9,9.9,9.9
		c2.6,0,5-1,6.9-2.8l0.8-0.8v15.6h0.9l0.3-0.3c0.4-0.3,0.7-0.6,1-0.9v-14l0.8,0.7c0.1,0.1,0.3,0.2,0.4,0.3c-1.4-2.1-3.5-3.7-6-4.4
		l-0.1-0.1c-0.2-0.1-0.4-0.2-0.6-0.3l-0.4-0.2l0.1-0.4c0.4-1.1,0.5-2.3,0.5-3.5c0-6.6-5.4-12-12-12c-0.9,0-1.7,0.1-2.5,0.3V68H114.5
		z"/>
	<path class="st1" d="M113.4,67h0.6v-6.3c-0.8,0.2-1.6,0.6-2.3,1v3.2C112.2,65.6,112.8,66.3,113.4,67z"/>
	<path class="st1" d="M114,67.5c0.2,0.2,0.4,0.3,0.6,0.5h0.5v-7.5c-0.2,0-0.3,0.1-0.5,0.1v6.9H114z"/>
	<path class="st1" d="M111.2,64v-2c-0.2,0.1-0.3,0.2-0.5,0.3v0.7C110.9,63.3,111.1,63.6,111.2,64z"/>
	<path class="st1" d="M111.7,64.8v-3.2c-0.2,0.1-0.3,0.2-0.5,0.3v2C111.4,64.3,111.6,64.6,111.7,64.8z"/>
	<path class="st1" d="M113.4,67c0.2,0.2,0.4,0.3,0.5,0.5h0.6v-6.9c-0.2,0-0.3,0.1-0.5,0.1V67H113.4z"/>
	<path class="st1" d="M135.3,93.6c0.2-0.2,0.3-0.4,0.5-0.7V82.2c0.4,0.3,0.8,0.5,1.2,0.7c-0.1-0.3-0.2-0.5-0.4-0.8
		c-0.5-0.3-0.9-0.6-1.3-0.9V93.6z"/>
	<path class="st1" d="M110.7,64.1c-0.2-0.4-0.4-0.9-0.6-1.4c-0.1,0.1-0.3,0.2-0.4,0.4c0.3,0.7,0.6,1.4,1,2V64.1z"/>
	<path class="st1" d="M132,80.9c-1.9,1.8-4.4,2.9-7.2,2.9c-5.7,0-10.4-4.6-10.4-10.4c0-1.5,0.3-3,0.9-4.3c-0.6-0.4-1.1-0.8-1.6-1.2
		H113c0.5,0.5,1.1,1,1.7,1.4c-0.5,1.3-0.8,2.7-0.8,4.1c0,6,4.9,10.9,10.9,10.9c2.5,0,4.8-0.8,6.7-2.3v14.4h2.5
		c-0.1-0.2-0.2-0.3-0.3-0.5H132V80.9z"/>
	<path class="st1" d="M112.1,67h0.7c-0.4-0.4-0.7-0.8-1-1.2v0.8C111.8,66.7,111.9,66.8,112.1,67z"/>
	<path class="st1" d="M112.5,67.5c0.2,0.2,0.3,0.3,0.5,0.5h0.7c-0.2-0.2-0.4-0.3-0.5-0.5H112.5z"/>
	<path class="st1" d="M111.2,65c-0.2-0.3-0.3-0.6-0.5-0.9v1c0.2,0.3,0.3,0.5,0.5,0.8V65z"/>
	<path class="st1" d="M111.7,65.7c-0.2-0.2-0.3-0.5-0.5-0.8v1c0.2,0.2,0.3,0.4,0.5,0.6V65.7z"/>
	<path class="st1" d="M112.1,67c0.1,0.2,0.3,0.3,0.5,0.5h0.7c-0.2-0.2-0.3-0.3-0.5-0.5H112.1z"/>
	<path class="st1" d="M134.8,80.1v14c0.2-0.2,0.3-0.4,0.5-0.6V81.2c0.4,0.3,0.9,0.7,1.3,0.9c-0.2-0.3-0.4-0.7-0.6-1
		c-0.1-0.1-0.3-0.2-0.4-0.3L134.8,80.1z"/>
	<path class="st1" d="M110.7,62.9c-0.1-0.2-0.1-0.3-0.2-0.5c-0.1,0.1-0.3,0.2-0.4,0.3c0.2,0.5,0.4,0.9,0.6,1.4V62.9z"/>
	<path class="st1" d="M132.5,95.4V79.7l-0.8,0.8c-1.9,1.8-4.3,2.8-6.9,2.8c-5.4,0-9.9-4.4-9.9-9.9c0-1.4,0.3-2.8,0.9-4.1L116,69
		l-0.4-0.2c-0.4-0.2-0.7-0.5-1.1-0.8h-0.8c0.5,0.4,1,0.8,1.6,1.2c-0.6,1.3-0.9,2.8-0.9,4.3c0,5.7,4.6,10.4,10.4,10.4
		c2.8,0,5.3-1.1,7.2-2.9v15h1.7c0,0,0-0.1-0.1-0.1l-0.3-0.4l0,0H132.5z"/>
	<path class="st1" d="M112.7,67h0.7c-0.6-0.6-1.2-1.4-1.7-2.1v0.9C112,66.2,112.4,66.6,112.7,67z"/>
	<path class="st1" d="M111.2,64c-0.2-0.3-0.4-0.7-0.5-1.1v1.1c0.2,0.3,0.3,0.6,0.5,0.9V64z"/>
	<path class="st1" d="M113.2,67.5c0.2,0.2,0.4,0.3,0.5,0.5h0.8c-0.2-0.2-0.4-0.3-0.6-0.5H113.2z"/>
	<path class="st1" d="M111.7,65.7v-0.9c-0.2-0.3-0.3-0.6-0.5-0.8v1C111.4,65.2,111.6,65.5,111.7,65.7z"/>
	<path class="st1" d="M113.2,67.5h0.7c-0.2-0.2-0.4-0.3-0.5-0.5h-0.7C112.9,67.1,113.1,67.3,113.2,67.5z"/>
	<path class="st1" d="M96.8,83.7c0-1.8-0.4-3.5-1.2-5c-2.4,2.3-4,5.5-4,9.1c0,1.6,0.3,3.2,0.9,4.7C95.1,90.4,96.8,87.3,96.8,83.7z"
		/>
	<path class="st1" d="M97.8,83.7c0-2-0.5-3.9-1.5-5.7c-0.1,0.1-0.3,0.2-0.4,0.3c0.9,1.6,1.3,3.4,1.3,5.4c0,3.8-1.8,7.1-4.6,9.2
		c0.1,0.2,0.1,0.3,0.2,0.5C95.9,91.2,97.8,87.7,97.8,83.7z"/>
	<path class="st1" d="M97.3,83.7c0-1.9-0.5-3.8-1.3-5.4c-0.1,0.1-0.3,0.2-0.4,0.3c0.8,1.6,1.2,3.3,1.2,5c0,3.5-1.7,6.7-4.3,8.7
		c0.1,0.2,0.1,0.3,0.2,0.5C95.5,90.8,97.3,87.5,97.3,83.7z"/>
	<path class="st1" d="M98.6,134.5c0.3-1,0.5-2.1,0.5-3.2c0-4.7-3.2-8.9-7.7-10.1l-0.1-0.1c-0.2-0.1-0.4-0.2-0.6-0.3l-0.4-0.2
		l0.1-0.4c0.4-1.1,0.5-2.3,0.5-3.5c0-6.6-5.4-12-12-12c0,0,0,0,0,0v3.2h-2.7c0.2,0.8,0.3,1.6,0.3,2.4c0,3.4-1.5,6.6-4,8.8
		c1.1,1.9,1.7,4,1.7,6.2c0,6.3-4.9,11.5-11.1,12c0.1,0.7,0.2,1.5,0.2,2.3c0,1.2-0.2,2.3-0.5,3.4c0.1,0,0.2,0.1,0.2,0.1
		c4.9,1.4,8.3,6,8.3,11.1c0,0.9-0.1,1.8-0.3,2.6c1.3-0.5,2.5-1.2,3.6-2.2l0.8-0.8v15.6h2.3v-15.3l0.8,0.7c2,1.6,4.5,2.5,7,2.5
		c1.9,0,3.7-0.5,5.3-1.4c-1.9-2.3-3-5.3-3-8.4C88.1,141.1,92.6,135.8,98.6,134.5z"/>
	<path class="st1" d="M77.9,104.6c-0.8,0.1-1.6,0.2-2.3,0.4v0.7c0.1,0.4,0.3,0.7,0.4,1.1h1.9V104.6z"/>
	<path class="st1" d="M78.9,104.6c-0.2,0-0.3,0-0.5,0v2.7h-2.3c0,0.2,0.1,0.3,0.1,0.5h2.7V104.6z"/>
	<path class="st1" d="M75.3,105.1c0.1,0.2,0.2,0.4,0.3,0.6V105C75.5,105.1,75.4,105.1,75.3,105.1z"/>
	<path class="st1" d="M78.4,104.6c-0.2,0-0.3,0-0.5,0v2.2H76c0.1,0.2,0.1,0.3,0.1,0.5h2.3V104.6z"/>
	<path class="st1" d="M128.3,156.7c-0.1-0.7-0.2-1.5-0.2-2.2c0-4.2,2-8,5.1-10.4c-0.6-1.5-0.9-3.1-0.9-4.7c0,0,0,0,0,0
		c-1.3-1.4-2.9-2.4-4.8-3l-0.1-0.1c-0.2-0.1-0.4-0.2-0.6-0.3l-0.4-0.2l0.1-0.4c0.4-1.1,0.5-2.3,0.5-3.5c0-5.8-4.1-10.6-9.5-11.8v5.8
		h-4.3v-5.9c-5.8,0.9-10.2,5.9-10.2,11.9c0,0.9,0.1,1.8,0.3,2.6l0.1,0.7l-0.7-0.1c-0.4,0-0.8-0.1-1.3-0.1c-0.7,0-1.5,0.1-2.2,0.2
		c-0.7,1.8-1.8,3.4-3.3,4.7c1.1,1.9,1.7,4,1.7,6.2c0,4.1-2.1,7.7-5.2,9.9c0.7,0.7,1.4,1.3,2.3,1.9l0.4,0.2l-0.2,0.4
		c-0.6,1.3-0.9,2.7-0.9,4.1c5,1,8.9,4.9,10,9.9c2.5,0,4.9-1,6.7-2.8l0.8-0.8v15.6h2.3v-15.3l0.1,0.1
		C114.5,162.2,120.8,156.3,128.3,156.7z"/>
	<path class="st1" d="M134.6,143.2c-0.3-0.8-0.7-1.6-1.2-2.4c0.1,0.9,0.3,1.8,0.6,2.7C134.3,143.4,134.5,143.3,134.6,143.2z"/>
	<path class="st1" d="M133.2,144.2c0.1-0.1,0.3-0.2,0.4-0.3c-0.4-1.2-0.7-2.4-0.7-3.8c-0.2-0.2-0.4-0.4-0.5-0.6c0,0,0,0,0,0
		C132.4,141.1,132.7,142.7,133.2,144.2z"/>
	<path class="st1" d="M134.1,143.5c-0.3-0.9-0.5-1.8-0.6-2.7c-0.2-0.3-0.4-0.5-0.5-0.8c0.1,1.3,0.3,2.6,0.7,3.8
		C133.8,143.7,133.9,143.6,134.1,143.5z"/>
	<path class="st1" d="M132.9,161.6c0-2.2-0.6-4.3-1.8-6.1l-0.3-0.4l0.4-0.3c2.3-1.8,3.7-4.4,3.9-7.3c-0.6-0.8-1.1-1.6-1.5-2.5
		c-2.8,2.2-4.5,5.6-4.5,9.4c0,0.9,0.1,1.8,0.3,2.6l0.2,0.7l-0.7-0.1c-0.4,0-0.8-0.1-1.3-0.1c-6.8,0-12.4,5.6-12.4,12.4
		c0,0.1,0,0.2,0,0.3c1.9,1.5,4.3,2.3,6.7,2.3C128,172.6,132.9,167.7,132.9,161.6z"/>
	<path class="st1" d="M135.2,145.9c0-0.6-0.1-1.1-0.3-1.7c-0.2,0.1-0.3,0.2-0.5,0.3C134.7,145,134.9,145.4,135.2,145.9z"/>
	<path class="st1" d="M133.6,145.1c0.4,0.9,0.9,1.7,1.5,2.5c0-0.3,0-0.5,0-0.8c-0.4-0.6-0.8-1.3-1.2-2
		C133.9,144.9,133.8,145,133.6,145.1z"/>
	<path class="st1" d="M134.1,144.8c0.3,0.7,0.7,1.4,1.2,2c0-0.1,0-0.1,0-0.2c0-0.3,0-0.5,0-0.8c-0.3-0.4-0.5-0.9-0.7-1.4
		C134.3,144.6,134.2,144.7,134.1,144.8z"/>
	<path class="st1" d="M127.6,157.2c0.4,0,0.9,0,1.3,0.1c-0.2-0.9-0.3-1.8-0.3-2.7c0-4,1.9-7.6,4.8-9.9c-0.1-0.2-0.1-0.3-0.2-0.5
		c-3.1,2.4-5.1,6.1-5.1,10.4c0,0.7,0.1,1.5,0.2,2.2c-7.5-0.4-13.8,5.5-14.1,12.9l0.5,0.4C114.7,162.9,120.5,157.2,127.6,157.2z"/>
	<path class="st1" d="M134.3,144c0.2-0.1,0.4-0.2,0.5-0.3c0-0.2-0.1-0.3-0.1-0.5c-0.2,0.1-0.4,0.2-0.6,0.3
		C134.1,143.7,134.2,143.9,134.3,144z"/>
	<path class="st1" d="M133.7,143.8c-0.1,0.1-0.3,0.2-0.4,0.3c0.1,0.2,0.1,0.3,0.2,0.5c0.1-0.1,0.3-0.2,0.4-0.3
		C133.8,144.2,133.7,144,133.7,143.8z"/>
	<path class="st1" d="M134.3,144c-0.1-0.2-0.1-0.3-0.2-0.5c-0.1,0.1-0.3,0.2-0.4,0.3c0.1,0.2,0.1,0.3,0.2,0.5
		C134,144.2,134.1,144.1,134.3,144z"/>
	<path class="st1" d="M127.6,157.7c0.4,0,0.9,0,1.3,0.1l0.7,0.1l-0.2-0.7c-0.2-0.9-0.3-1.7-0.3-2.6c0-3.8,1.8-7.2,4.5-9.4
		c-0.1-0.2-0.1-0.3-0.2-0.5c-2.9,2.3-4.8,5.9-4.8,9.9c0,0.9,0.1,1.8,0.3,2.7c-0.4,0-0.9-0.1-1.3-0.1c-7.1,0-12.8,5.7-12.9,12.8
		l0.2,0.2c0.1,0.1,0.2,0.2,0.3,0.2c0-0.1,0-0.2,0-0.3C115.2,163.2,120.7,157.7,127.6,157.7z"/>
	<path class="st1" d="M134.5,144.5c0.2-0.1,0.3-0.2,0.5-0.3c0-0.2-0.1-0.3-0.1-0.5c-0.2,0.1-0.4,0.2-0.5,0.3
		C134.3,144.2,134.4,144.3,134.5,144.5z"/>
	<path class="st1" d="M133.8,144.3c-0.1,0.1-0.3,0.2-0.4,0.3c0.1,0.2,0.1,0.3,0.2,0.5c0.1-0.1,0.3-0.2,0.4-0.3
		C134,144.6,133.9,144.5,133.8,144.3z"/>
	<path class="st1" d="M134.1,144.8c0.1-0.1,0.3-0.2,0.4-0.3c-0.1-0.2-0.2-0.3-0.2-0.5c-0.1,0.1-0.3,0.2-0.4,0.3
		C133.9,144.5,134,144.6,134.1,144.8z"/>
	<path class="st1" d="M116.6,124.9V120c-0.5-0.1-1-0.1-1.5-0.1c-0.3,0-0.5,0-0.8,0v5H116.6z"/>
	<path class="st1" d="M117.6,125.9v-5.8c-0.2,0-0.3-0.1-0.5-0.1v5.3h-3.3V120c-0.2,0-0.3,0.1-0.5,0.1v5.9H117.6z"/>
	<path class="st1" d="M117.1,125.4v-5.3c-0.2,0-0.3-0.1-0.5-0.1v4.9h-2.3v-5c-0.2,0-0.3,0-0.5,0v5.4H117.1z"/>
	<path class="st1" d="M96.8,146.3c0-2.2-0.6-4.3-1.8-6.1l-0.3-0.4l0.4-0.3c1.3-1.1,2.4-2.4,3.1-3.9c-5.2,1.5-9.1,6.3-9.1,11.9
		c0,2.9,1,5.7,2.8,7.9C94.9,153.4,96.8,150.1,96.8,146.3z"/>
	<path class="st1" d="M97.8,146.3c0-2.2-0.6-4.4-1.7-6.2c1.5-1.3,2.6-2.9,3.3-4.7c-0.2,0-0.4,0.1-0.6,0.1c-0.7,1.8-1.9,3.3-3.3,4.5
		c1.2,1.8,1.9,4,1.9,6.3c0,4-2,7.5-5.1,9.5c0.1,0.1,0.2,0.2,0.3,0.4C95.7,154,97.8,150.4,97.8,146.3z"/>
	<path class="st1" d="M97.3,146.3c0-2.3-0.7-4.5-1.9-6.3c1.5-1.2,2.6-2.7,3.3-4.5c-0.2,0-0.4,0.1-0.6,0.2c-0.7,1.5-1.7,2.9-3.1,3.9
		l-0.4,0.3l0.3,0.4c1.2,1.8,1.8,3.9,1.8,6.1c0,3.8-1.9,7.2-4.9,9.2c0.1,0.1,0.2,0.3,0.3,0.4C95.3,153.7,97.3,150.2,97.3,146.3z"/>
	<path class="st1" d="M10.3,125.2c0-2.2-0.6-4.3-1.8-6.1l-0.3-0.4l0.4-0.3c1-0.8,1.8-1.8,2.5-2.8c-1.7-1.9-2.7-4.4-2.7-7.1
		c0-1.4,0.3-2.8,0.8-4.1c-1.7-1.1-3-2.6-4-4.2c-0.1,0-0.2-0.1-0.3-0.1L4.8,100c-0.2-0.1-0.4-0.2-0.6-0.3l-0.4-0.2L3.9,99
		c0.1-0.3,0.2-0.7,0.3-1c-0.6-1.5-0.9-3.1-0.9-4.8c0-0.8,0.1-1.6,0.2-2.4c-0.8-1.8-2-3.4-3.5-4.7v50C5.7,135.8,10.3,131,10.3,125.2z
		"/>
	<path class="st1" d="M188.3,87.9c0.1,0.7,0.2,1.5,0.2,2.3c0,2.8-1,5.4-2.7,7.4c0,0.2,0,0.3,0.1,0.5l0.1,0.7l-0.7-0.1
		c-0.2,0-0.4,0-0.6,0c-0.1,0.1-0.2,0.2-0.3,0.2c1.1,1.9,1.7,4,1.7,6.2c0,6.6-5.4,12-12,12c-0.3,0-0.6,0-0.9,0c1,1.8,2.4,3.3,4.2,4.4
		l0.4,0.2l-0.2,0.4c-0.6,1.3-0.9,2.7-0.9,4.1c0,5.4,4.4,9.9,9.9,9.9c2.6,0,5-1,6.9-2.8l0.8-0.8v15.6h2.3V133l0.8,0.7
		c2,1.6,4.5,2.5,7,2.5c0.2,0,0.5,0,0.7,0v-50c-2.1-1.7-4.7-2.7-7.6-2.7C193.9,83.5,190.5,85.2,188.3,87.9z"/>
	<path class="st1" d="M185.3,105.2c0-2.2-0.6-4.3-1.8-6.1l-0.3-0.4l0,0c-6.4,0.5-11.5,5.8-11.5,12.4c0,1.8,0.4,3.5,1.1,5
		c0.5,0.1,1,0.1,1.5,0.1C180.3,116.2,185.3,111.3,185.3,105.2z"/>
	<path class="st1" d="M187.5,89.1c-1.2,1.9-1.9,4-1.9,6.4c0,0.2,0,0.5,0,0.7c1.2-1.7,1.9-3.8,1.9-6
		C187.6,89.8,187.5,89.5,187.5,89.1z"/>
	<path class="st1" d="M188.3,87.9c-0.1,0.2-0.3,0.4-0.4,0.5c0.1,0.6,0.1,1.1,0.1,1.7c0,2.5-0.9,4.9-2.3,6.8c0,0.2,0.1,0.4,0.1,0.7
		c1.7-2.1,2.7-4.7,2.7-7.4C188.6,89.4,188.5,88.7,188.3,87.9z"/>
	<path class="st1" d="M186.3,105.2c0-2.2-0.6-4.4-1.7-6.2c0.1-0.1,0.2-0.2,0.3-0.2c-0.2,0-0.5,0-0.7,0c0,0,0,0,0,0
		c-0.1,0.1-0.1,0.1-0.2,0.2c1.2,1.8,1.9,4,1.9,6.3c0,6.4-5.2,11.5-11.5,11.5c-0.4,0-0.8,0-1.2-0.1c0.1,0.2,0.2,0.4,0.3,0.5
		c0.3,0,0.6,0,0.9,0C180.9,117.2,186.3,111.8,186.3,105.2z"/>
	<path class="st1" d="M187.9,88.5c-0.1,0.2-0.3,0.4-0.4,0.6c0,0.4,0.1,0.7,0.1,1.1c0,2.2-0.7,4.2-1.9,6c0,0.3,0,0.5,0.1,0.8
		c1.5-1.9,2.3-4.2,2.3-6.8C188.1,89.6,188,89,187.9,88.5z"/>
	<path class="st1" d="M185.8,105.2c0-2.3-0.7-4.5-1.9-6.3c0.1-0.1,0.1-0.1,0.2-0.2c-0.3,0-0.6,0-0.8,0l0,0l0.3,0.4
		c1.2,1.8,1.8,3.9,1.8,6.1c0,6.1-5,11-11,11c-0.5,0-1,0-1.5-0.1c0.1,0.2,0.2,0.4,0.3,0.5c0.4,0,0.8,0.1,1.2,0.1
		C180.6,116.7,185.8,111.6,185.8,105.2z"/>
	<path class="st1" d="M107.6,199.1l-0.3-0.4l0.4-0.3c2.5-2,4-5,4-8.3c0-4.7-3.2-8.9-7.7-10.1l-0.1-0.1c-0.2-0.1-0.4-0.2-0.6-0.3
		l-0.4-0.2l0.1-0.4c0.4-1.1,0.5-2.3,0.5-3.5c0-0.6-0.1-1.3-0.2-1.9c-5.4-0.3-9.8-4.6-10.2-10c-0.6-0.1-1.1-0.1-1.7-0.1
		c-6.6,0-12,5.4-12,12c0,0.9,0.1,1.8,0.3,2.6l0.1,0.7l-0.7-0.1c-0.4,0-0.8-0.1-1.3-0.1c-6.8,0-12.4,5.6-12.4,12.4
		c0,4.3,2.2,8.2,5.8,10.5l0.4,0.2l-0.2,0.4c-0.6,1.3-0.9,2.7-0.9,4.1c0,1.3,0.3,2.5,0.7,3.7h36.9c0.7-1.5,1.1-3.1,1.1-4.8
		C109.4,203,108.7,200.9,107.6,199.1z"/>
	<path class="st1" d="M103.2,172.6c-1.1-4.4-4.6-7.8-8.9-8.8C94.7,168.5,98.5,172.2,103.2,172.6z"/>
	<path class="st1" d="M103.4,173.6c0-0.2,0-0.3-0.1-0.5c-5.1-0.4-9.2-4.4-9.6-9.4c-0.2,0-0.3-0.1-0.5-0.1
		C93.6,169,98,173.3,103.4,173.6z"/>
	<path class="st1" d="M103.3,173.1c0-0.2-0.1-0.3-0.1-0.5c-4.7-0.4-8.5-4.1-8.9-8.8c-0.2,0-0.3-0.1-0.5-0.1
		C94.1,168.7,98.2,172.7,103.3,173.1z"/>
	<path class="st1" d="M80.5,6.2c2.6,0,5-1,6.9-2.8l0.8-0.8v15.6h2.3V3l0.8,0.7c2,1.6,4.5,2.5,7,2.5c4.3,0,8.1-2.5,9.9-6.2H71.3
		C72.8,3.6,76.3,6.2,80.5,6.2z"/>
	<path class="st1" d="M6.9,43.8l-0.2,0.4c-0.6,1.3-0.9,2.7-0.9,4.1c0,5.4,4.4,9.9,9.9,9.9c2.6,0,5-1,6.9-2.8l0.8-0.8v12
		c0.7-0.5,1.5-0.8,2.3-1.1V55l0.8,0.7c2,1.6,4.5,2.5,7,2.5c2.4,0,4.6-0.8,6.4-2.1c-0.2-0.8-0.3-1.7-0.3-2.6c0-1.4,0.3-2.8,0.8-4.1
		c-3.7-2.5-5.9-6.6-5.9-11.1c0-6.1,4.2-11.3,9.8-12.9c-1.3-1.6-3.1-2.7-5.1-3.3L39.1,22c-0.2-0.1-0.4-0.2-0.6-0.3l-0.4-0.2l0.1-0.4
		c0.4-1.1,0.5-2.3,0.5-3.5c0-1.2-0.2-2.3-0.5-3.4c-0.7,0.1-1.5,0.2-2.3,0.2c-2.5,0-4.9-0.8-6.9-2.1v14.2h-4.3V12
		c-1.9,1.5-4.2,2.3-6.7,2.3c-1,0-2-0.1-2.9-0.4c-0.3,1.1-0.5,2.3-0.5,3.6c0,0.9,0.1,1.8,0.3,2.6l0.1,0.7l-0.7-0.1
		c-0.4,0-0.8-0.1-1.3-0.1c-6.8,0-12.4,5.6-12.4,12.4c0,4.3,2.2,8.2,5.8,10.5L6.9,43.8z"/>
	<path class="st1" d="M25,10.6l0.8-0.8v15.6h2.3V10.1l0.8,0.7c2,1.6,4.5,2.5,7,2.5c0.7,0,1.3-0.1,2-0.2c-1.7-4.5-6.1-7.7-11.2-7.7
		c-5.1,0-9.4,3.1-11.2,7.5c0.8,0.2,1.7,0.4,2.6,0.4C20.7,13.3,23.2,12.4,25,10.6z"/>
	<path class="st1" d="M24.9,12v14.4h4.3V12.2c2,1.4,4.4,2.1,6.9,2.1c0.8,0,1.5-0.1,2.3-0.2c0-0.2-0.1-0.3-0.2-0.5
		c-0.7,0.1-1.4,0.2-2.1,0.2c-2.8,0-5.4-1-7.4-2.7v14.7h-3.3v-15c-1.9,1.8-4.4,2.9-7.2,2.9c-1,0-1.9-0.1-2.7-0.4
		c-0.1,0.2-0.1,0.3-0.2,0.5c0.9,0.3,1.9,0.4,2.9,0.4C20.6,14.3,22.9,13.5,24.9,12z"/>
	<path class="st1" d="M25.4,10.9v15h3.3V11.2c2,1.7,4.6,2.7,7.4,2.7c0.7,0,1.4-0.1,2.1-0.2c-0.1-0.2-0.1-0.3-0.2-0.5
		c-0.6,0.1-1.3,0.2-2,0.2c-2.6,0-5.1-0.9-7-2.5l-0.8-0.7v15.3h-2.3V9.8L25,10.6c-1.8,1.8-4.3,2.8-6.9,2.8c-0.9,0-1.8-0.1-2.6-0.4
		c-0.1,0.2-0.1,0.3-0.2,0.5c0.9,0.2,1.8,0.4,2.7,0.4C21,13.8,23.5,12.7,25.4,10.9z"/>
	<path class="st1" d="M35.6,38.2c0,4.3,2.2,8.2,5.8,10.5l0.4,0.2l-0.2,0.4c-0.6,1.3-0.9,2.7-0.9,4.1c0,0.7,0.1,1.3,0.2,2
		c2.3-2,3.8-5,3.8-8.3c0-2.2-0.6-4.3-1.8-6.1l-0.3-0.4l0.4-0.3c2.5-2,4-5,4-8.3c0-2.2-0.7-4.3-1.9-6C39.6,27.5,35.6,32.4,35.6,38.2z
		"/>
	<path class="st1" d="M34.6,38.2c0,4.5,2.2,8.6,5.9,11.1c-0.5,1.3-0.8,2.7-0.8,4.1c0,0.9,0.1,1.8,0.3,2.6c0.1-0.1,0.3-0.2,0.4-0.3
		c-0.2-0.7-0.3-1.5-0.3-2.3c0-1.5,0.3-3,0.9-4.3c-3.6-2.3-6-6.3-6-10.9c0-6,4.1-11,9.7-12.5c-0.1-0.1-0.2-0.3-0.3-0.4
		C38.7,26.9,34.6,32.1,34.6,38.2z"/>
	<path class="st1" d="M35.1,38.2c0,4.6,2.4,8.6,6,10.9c-0.6,1.3-0.9,2.8-0.9,4.3c0,0.8,0.1,1.6,0.3,2.3c0.1-0.1,0.3-0.2,0.4-0.4
		c-0.1-0.6-0.2-1.3-0.2-2c0-1.4,0.3-2.8,0.9-4.1l0.2-0.4l-0.4-0.2c-3.6-2.3-5.8-6.2-5.8-10.5c0-5.8,4-10.7,9.5-12
		c-0.1-0.1-0.2-0.3-0.3-0.4C39.2,27.2,35.1,32.2,35.1,38.2z"/>
	<path class="st1" d="M27,114.8v15.6h2.3v-14.4c-0.6-1.5-0.9-3.2-0.9-4.9c0-7.4,6-13.4,13.4-13.4c0.2,0,0.5,0,0.7,0
		c-0.1-0.7-0.2-1.5-0.2-2.2c0-4.3,2.1-8.1,5.2-10.4c-1.3-1.4-2.9-2.4-4.8-2.9l-0.1-0.1c-0.2-0.1-0.4-0.2-0.6-0.3l-0.4-0.2l0.1-0.4
		c0.4-1.1,0.5-2.3,0.5-3.5c0-6.6-5.4-12-12-12c-1.2,0-2.4,0.2-3.5,0.5v5.1h-4.3v-2.7c-2.6,2.2-4.2,5.5-4.2,9.1
		c0,0.9,0.1,1.8,0.3,2.6l0.1,0.7L18,80.9c-0.4,0-0.8-0.1-1.3-0.1c-6,0-11,4.3-12.2,9.9c0.6,1.5,0.9,3.1,0.9,4.8
		c0,0.8-0.1,1.6-0.2,2.4c0.2,0.5,0.4,0.9,0.7,1.4c4.6,1.6,7.7,6,7.7,10.9c0,1.9-0.5,3.7-1.3,5.3c1.8,1.8,4.3,2.9,7,2.9
		c2.6,0,5-1,6.9-2.8L27,114.8z"/>
	<path class="st1" d="M6.9,100.9c0.9,1.1,1.9,2.1,3.2,2.9l0.4,0.2l-0.2,0.4c-0.6,1.3-0.9,2.7-0.9,4.1c0,2.3,0.8,4.5,2.2,6.2
		c0.6-1.4,1-2.9,1-4.5C12.6,106.2,10.3,102.6,6.9,100.9z"/>
	<path class="st1" d="M5.9,99.3c0.1,0.2,0.3,0.5,0.5,0.7c4,1.7,6.7,5.6,6.7,10.2c0,1.8-0.4,3.4-1.1,4.9c0.1,0.1,0.2,0.3,0.4,0.4
		c0.8-1.6,1.3-3.4,1.3-5.3C13.6,105.3,10.4,100.9,5.9,99.3z"/>
	<path class="st1" d="M4.5,90.8c-0.1,0.3-0.1,0.7-0.2,1C4.8,93,5,94.2,5,95.5c0,0.5,0,0.9-0.1,1.4c0.1,0.4,0.2,0.7,0.4,1
		c0.1-0.8,0.2-1.6,0.2-2.4C5.5,93.8,5.1,92.2,4.5,90.8z"/>
	<path class="st1" d="M6.3,100c0.2,0.3,0.4,0.6,0.6,0.8c3.4,1.8,5.6,5.4,5.6,9.3c0,1.6-0.4,3.1-1,4.5c0.1,0.1,0.2,0.3,0.4,0.4
		c0.7-1.5,1.1-3.1,1.1-4.9C13.1,105.6,10.3,101.7,6.3,100z"/>
	<path class="st1" d="M4.4,91.8c-0.1,0.5-0.1,1-0.1,1.4c0,0.3,0,0.5,0,0.7c0,0.3,0,0.7,0.1,1c0.1,0.7,0.2,1.3,0.4,1.9
		C4.9,96.4,5,96,5,95.5C5,94.2,4.8,93,4.4,91.8z"/>
	<path class="st1" d="M25.7,70.2v-3.7c-0.8,0.3-1.6,0.8-2.3,1.3v2.5H25.7z"/>
	<path class="st1" d="M26.7,71.2v-5.1c-0.2,0.1-0.3,0.1-0.5,0.2v4.4h-3.3v-2.6c-0.2,0.1-0.3,0.3-0.5,0.4v2.7H26.7z"/>
	<path class="st1" d="M26.2,70.7v-4.4c-0.2,0.1-0.3,0.1-0.5,0.2v3.7h-2.3v-2.5c-0.2,0.1-0.3,0.2-0.5,0.4v2.6H26.2z"/>
	<path class="st1" d="M65.3,118.8c0.2,0,0.5,0,0.7,0c-0.1-0.7-0.2-1.5-0.2-2.2c0-5.4,3.3-10.1,8-12c-1.4-2.2-3.5-3.8-6.1-4.5
		l-0.1-0.1c-0.2-0.1-0.4-0.2-0.6-0.3l-0.4-0.2l0.1-0.4c0.3-1.1,0.5-2.2,0.5-3.3c-5.8-0.3-10.4-5-10.4-10.8c0-0.4,0-0.9,0.1-1.3
		c-0.6-0.1-1.2-0.1-1.8-0.1c-2.3,0-4.5,0.7-6.3,1.8c1.5,2,2.4,4.4,2.4,7c0,3.4-1.5,6.6-4,8.8c1.1,1.9,1.7,4,1.7,6.2
		c0,6.6-5.4,12-12,12c-2,0-4-0.5-5.7-1.5c1,1.5,2.2,2.7,3.8,3.7l0.4,0.2l-0.2,0.4c-0.6,1.3-0.9,2.7-0.9,4.1c0,3.2,1.5,6.1,3.9,7.9
		c2-4.6,6.6-7.8,11.9-7.8c1,0,1.9,0.1,2.8,0.3C55.2,122,59.9,118.8,65.3,118.8z"/>
	<path class="st1" d="M67.3,94.7c-0.3-5.3-4.2-9.7-9.3-10.9c0,0.4-0.1,0.7-0.1,1.1C58,90.1,62.2,94.4,67.3,94.7z"/>
	<path class="st1" d="M67.4,95.7c0-0.1,0-0.1,0-0.2c0-0.1,0-0.2,0-0.3c-5.5-0.3-9.8-4.8-9.8-10.3c0-0.4,0-0.8,0.1-1.2
		c-0.2,0-0.3-0.1-0.5-0.1c0,0.4-0.1,0.8-0.1,1.3C57,90.7,61.6,95.5,67.4,95.7z"/>
	<path class="st1" d="M67.4,95.2c0-0.2,0-0.3,0-0.5c-5.2-0.3-9.3-4.6-9.3-9.8c0-0.4,0-0.7,0.1-1.1c-0.2,0-0.3-0.1-0.5-0.1
		c0,0.4-0.1,0.8-0.1,1.2C57.5,90.4,61.9,94.9,67.4,95.2z"/>
	<path class="st1" d="M75.5,110.2c0-0.8-0.1-1.6-0.3-2.4h-0.6v-1.9c-0.1-0.2-0.1-0.3-0.2-0.5c-4.4,1.8-7.5,6.1-7.5,11.2
		c0,0.9,0.1,1.8,0.3,2.6l0.1,0.7l-0.7-0.1c-0.4,0-0.8-0.1-1.3-0.1c-5,0-9.3,3-11.3,7.2c4.3,1.3,7.7,4.8,8.8,9.2
		c5.7-0.4,10.3-5.2,10.3-11c0-2.2-0.6-4.3-1.8-6.1l-0.3-0.4l0.4-0.3C74,116.4,75.5,113.4,75.5,110.2z"/>
	<path class="st1" d="M75.2,107.8c-0.2-0.6-0.4-1.3-0.6-1.9v1.9H75.2z"/>
	<path class="st1" d="M65.3,119.3c0.4,0,0.9,0,1.3,0.1c-0.2-0.9-0.3-1.8-0.3-2.7c0-5.2,3.2-9.7,7.8-11.6c-0.1-0.1-0.2-0.3-0.3-0.4
		c-4.7,2-8,6.6-8,12c0,0.7,0.1,1.5,0.2,2.2c-0.2,0-0.5,0-0.7,0c-5.5,0-10.1,3.3-12.2,8c0.2,0,0.3,0.1,0.5,0.1
		C55.6,122.4,60.1,119.3,65.3,119.3z"/>
	<path class="st1" d="M65.3,119.8c0.4,0,0.9,0,1.3,0.1l0.7,0.1l-0.1-0.7c-0.2-0.9-0.3-1.7-0.3-2.6c0-5,3.1-9.4,7.5-11.2
		c-0.1-0.2-0.2-0.3-0.2-0.4c-4.6,1.9-7.8,6.4-7.8,11.6c0,0.9,0.1,1.8,0.3,2.7c-0.4,0-0.9-0.1-1.3-0.1c-5.2,0-9.7,3.1-11.8,7.6
		c0.2,0,0.3,0.1,0.5,0.1C56.1,122.7,60.4,119.8,65.3,119.8z"/>
	<path class="st1" d="M48.2,107.3c0-2.2-0.6-4.3-1.8-6.1l-0.3-0.4l0.4-0.3c2.5-2,4-5,4-8.3c0-2.4-0.8-4.7-2.2-6.5
		c-3,2.2-4.9,5.7-4.9,9.7c0,0.9,0.1,1.8,0.3,2.6l0.1,0.7L43,98.7c-0.4,0-0.8-0.1-1.3-0.1c-6.8,0-12.4,5.6-12.4,12.4
		c0,1.7,0.4,3.4,1,5c1.9,1.5,4.3,2.3,6.7,2.3C43.2,118.3,48.2,113.4,48.2,107.3z"/>
	<path class="st1" d="M49.2,107.3c0-2.2-0.6-4.4-1.7-6.2c2.6-2.2,4-5.4,4-8.8c0-2.6-0.9-5.1-2.4-7c-0.1,0.1-0.3,0.2-0.4,0.3
		c1.5,1.9,2.3,4.2,2.3,6.8c0,3.5-1.6,6.6-4.2,8.6c1.2,1.8,1.9,4,1.9,6.3c0,6.4-5.2,11.5-11.5,11.5c-2.3,0-4.5-0.7-6.3-1.9
		c0.2,0.3,0.4,0.6,0.6,0.9c1.7,0.9,3.7,1.5,5.7,1.5C43.8,119.3,49.2,113.9,49.2,107.3z"/>
	<path class="st1" d="M48.7,107.3c0-2.3-0.7-4.5-1.9-6.3c2.5-2,4.2-5.1,4.2-8.6c0-2.6-0.9-4.9-2.3-6.8c-0.1,0.1-0.3,0.2-0.4,0.3
		c1.4,1.8,2.2,4.1,2.2,6.5c0,3.2-1.5,6.2-4,8.3l-0.4,0.3l0.3,0.4c1.2,1.8,1.8,3.9,1.8,6.1c0,6.1-5,11-11,11c-2.4,0-4.8-0.8-6.7-2.3
		c0.1,0.3,0.3,0.6,0.4,0.9c1.8,1.2,4,1.9,6.3,1.9C43.5,118.8,48.7,113.7,48.7,107.3z"/>
	<path class="st1" d="M57,147.4c0-1.4,0.3-2.8,0.8-4.1c-0.9-0.6-1.8-1.4-2.5-2.2v8.1H51v-14.4c-1.9,1.5-4.2,2.3-6.7,2.3
		c-2,0-3.8-0.5-5.4-1.5c-0.4,1.2-0.6,2.4-0.6,3.7c0,0.9,0.1,1.8,0.3,2.6l0.1,0.7l-0.7-0.1c-0.4,0-0.8-0.1-1.3-0.1
		c-6.8,0-12.4,5.6-12.4,12.4c0,0.5,0,1,0.1,1.5c3.8,1.9,6.3,5.9,6.3,10.3c0,1-0.1,2-0.4,2.9c5.7,0.5,10.3,4.7,11.5,10.1
		c1.6-0.4,3-1.2,4.3-2.4l0.8-0.8v12.7c0.9,0.9,1.6,1.9,2.1,3h0.2v-15.3l0.8,0.7c2,1.6,4.5,2.5,7,2.5c6.1,0,11-5,11-11
		c0-2.2-0.6-4.3-1.8-6.1l-0.3-0.4l0.4-0.3c1.4-1.1,2.5-2.6,3.2-4.2c-0.6,0.1-1.2,0.1-1.8,0.1C61.9,158.3,57,153.4,57,147.4z"/>
	<path class="st1" d="M24.7,157.8c0.7,3,2.4,5.6,4.9,7.4C29.1,162.1,27.3,159.4,24.7,157.8z"/>
	<path class="st1" d="M24.4,156.5c0,0.2,0.1,0.4,0.1,0.6c3.1,1.7,5.2,4.8,5.6,8.4l0.4,0.2l-0.2,0.4c0,0.1-0.1,0.2-0.1,0.3
		c0,0.1,0,0.2,0,0.3c0,1-0.1,2-0.4,2.9c0.2,0,0.3,0,0.5,0c0.2-0.9,0.4-1.9,0.4-2.9C30.7,162.4,28.2,158.4,24.4,156.5z"/>
	<path class="st1" d="M30.2,166.4c-0.4,1-0.7,2.1-0.8,3.2c0.1,0,0.3,0,0.4,0c0.2-0.9,0.4-1.9,0.4-2.9
		C30.2,166.7,30.2,166.6,30.2,166.4z"/>
	<path class="st1" d="M24.5,157.1c0,0.2,0.1,0.4,0.1,0.7c2.6,1.6,4.5,4.3,4.9,7.4c0.2,0.1,0.3,0.3,0.5,0.4l0,0
		C29.8,161.9,27.6,158.8,24.5,157.1z"/>
	<path class="st1" d="M62.8,144l-0.1-0.1c-0.2-0.1-0.4-0.2-0.6-0.3l-0.4-0.2l0.1-0.4c0.4-1.1,0.5-2.3,0.5-3.5c0-0.8-0.1-1.5-0.2-2.3
		c-2.4,0-4.8-0.8-6.8-2.1v4.5c0.9,1.2,2.1,2.3,3.4,3.2l0.4,0.2l-0.2,0.4c-0.6,1.3-0.9,2.7-0.9,4.1c0,5.4,4.4,9.9,9.9,9.9
		c0.7,0,1.5-0.1,2.2-0.2c0.3-0.9,0.4-1.9,0.4-2.9C70.5,149.4,67.3,145.2,62.8,144z"/>
	<path class="st1" d="M57.5,147.4c0-1.5,0.3-3,0.9-4.3c-1.2-0.8-2.3-1.7-3.1-2.8v0.8c0.7,0.8,1.6,1.6,2.5,2.2
		c-0.5,1.3-0.8,2.7-0.8,4.1c0,6,4.9,10.9,10.9,10.9c0.6,0,1.2-0.1,1.8-0.1c0.1-0.2,0.2-0.4,0.2-0.5c-0.6,0.1-1.3,0.2-2,0.2
		C62.2,157.8,57.5,153.2,57.5,147.4z"/>
	<path class="st1" d="M58,147.4c0-1.4,0.3-2.8,0.9-4.1l0.2-0.4l-0.4-0.2c-1.4-0.9-2.5-1.9-3.4-3.2v0.8c0.9,1.1,1.9,2.1,3.1,2.8
		c-0.6,1.3-0.9,2.8-0.9,4.3c0,5.7,4.6,10.4,10.4,10.4c0.7,0,1.4-0.1,2-0.2c0.1-0.2,0.1-0.4,0.2-0.6c-0.7,0.2-1.4,0.2-2.2,0.2
		C62.5,157.3,58,152.9,58,147.4z"/>
	<path class="st1" d="M52,148.2h2.3v-8.4c-1.3-1.8-2.1-3.9-2.3-6.2V148.2z"/>
	<path class="st1" d="M51.2,133.4l0.8-0.8c0-0.2,0-0.3,0-0.5c0-1.6,0.3-3.1,0.8-4.5c-0.8-0.2-1.6-0.2-2.4-0.2c-5,0-9.3,3-11.1,7.4
		c1.5,0.9,3.2,1.4,5.1,1.4C46.9,136.2,49.3,135.2,51.2,133.4z"/>
	<path class="st1" d="M54.3,137.9V133l0.8,0.7c1.9,1.6,4.3,2.5,6.8,2.5c-1.1-4-4.2-7.1-8.2-8.3c-0.5,1.3-0.8,2.8-0.8,4.3
		C52.9,134.2,53.4,136.1,54.3,137.9z"/>
	<path class="st1" d="M52,132.7L52,132.7l0.1,1c0.2,2.2,1,4.4,2.3,6.2v-1c-1.2-2-1.9-4.2-1.9-6.7c0-1.5,0.3-3,0.8-4.4
		c-0.2,0-0.3-0.1-0.5-0.1c-0.5,1.4-0.8,2.9-0.8,4.5C51.9,132.3,52,132.5,52,132.7z"/>
	<path class="st1" d="M54.3,138.9v-1c-0.9-1.7-1.4-3.7-1.4-5.7c0-1.5,0.3-2.9,0.8-4.3c-0.2,0-0.3-0.1-0.5-0.1
		c-0.5,1.4-0.8,2.8-0.8,4.4C52.4,134.6,53.1,136.9,54.3,138.9z"/>
	<path class="st1" d="M51,134.9v14.4h4.3v-8.1c-0.2-0.2-0.3-0.4-0.5-0.6v8.3h-3.3v-15c-1.9,1.8-4.4,2.9-7.2,2.9
		c-1.9,0-3.7-0.5-5.3-1.5c-0.1,0.2-0.1,0.3-0.2,0.5c1.6,0.9,3.5,1.5,5.4,1.5C46.8,137.2,49.1,136.4,51,134.9z"/>
	<path class="st1" d="M54.8,138.7c0.2,0.3,0.3,0.5,0.5,0.8v-4.5c2,1.4,4.4,2.1,6.8,2.1c0-0.2-0.1-0.3-0.1-0.5c-2.7,0-5.2-1-7.2-2.6
		V138.7z"/>
	<path class="st1" d="M54.8,140.5c0.2,0.2,0.3,0.4,0.5,0.6v-0.8c-0.2-0.2-0.3-0.4-0.5-0.6V140.5z"/>
	<path class="st1" d="M54.8,139.6c0.2,0.2,0.3,0.4,0.5,0.6v-0.8c-0.2-0.2-0.3-0.5-0.5-0.8V139.6z"/>
	<path class="st1" d="M51.5,133.8v15h3.3v-8.3c-0.2-0.2-0.3-0.4-0.5-0.6v8.4H52v-14.6c0-0.3,0-0.7-0.1-1l-0.8,0.8
		c-1.9,1.8-4.3,2.8-6.9,2.8c-1.9,0-3.6-0.5-5.1-1.4c-0.1,0.2-0.1,0.3-0.2,0.5c1.5,0.9,3.3,1.5,5.3,1.5
		C47.1,136.7,49.7,135.6,51.5,133.8z"/>
	<path class="st1" d="M54.3,133v4.9c0.2,0.3,0.3,0.6,0.5,0.9V134c2,1.6,4.5,2.6,7.2,2.6c0-0.2-0.1-0.3-0.1-0.5
		c-2.5-0.1-4.9-1-6.8-2.5L54.3,133z"/>
	<path class="st1" d="M52,132.7c0,0.3,0,0.7,0.1,1L52,132.7L52,132.7z"/>
	<path class="st1" d="M54.3,138.9v1c0.2,0.2,0.3,0.4,0.5,0.6v-0.8C54.7,139.4,54.5,139.1,54.3,138.9z"/>
	<path class="st1" d="M54.8,138.7c-0.2-0.3-0.3-0.6-0.5-0.9v1c0.2,0.3,0.3,0.5,0.5,0.8V138.7z"/>
	<path class="st1" d="M5.1,191.6c-1.2,1.9-2,4.2-2,6.7c0,2.5,0.7,4.8,2.1,6.8v-13.6C5.2,191.5,5.2,191.5,5.1,191.6z"/>
	<path class="st1" d="M45,205.9l0.4-0.3c2.5-2,4-5,4-8.3c0-1.4-0.3-2.8-0.8-4.1H46v-3.6c-1.2-1.1-2.7-2-4.3-2.5l-0.1-0.1
		c-0.2-0.1-0.4-0.2-0.6-0.3l-0.4-0.2l0.1-0.4c0.4-1.1,0.5-2.3,0.5-3.5c0-0.6-0.1-1.1-0.1-1.6c-0.6,0.1-1.2,0.1-1.8,0.1
		c-5,0-9.2-3.4-10.5-8c-0.6,0.9-1.3,1.7-2.1,2.4c1.1,1.9,1.7,4,1.7,6.2c0,6.6-5.4,12-12,12c-2.5,0-4.9-0.8-6.9-2.1v14.2H5.8
		c0.9,1.1,1.9,2.1,3.2,2.9l0.4,0.2l-0.2,0.4c-0.1,0.2-0.2,0.4-0.3,0.6h37.9c-0.3-1.3-0.8-2.6-1.6-3.8L45,205.9z"/>
	<path class="st1" d="M8.6,204.8v-15.3l0.8,0.7c2,1.6,4.5,2.5,7,2.5c6.1,0,11-5,11-11c0-2.2-0.6-4.3-1.8-6.1l-0.3-0.4l0.4-0.3
		c1.2-0.9,2.1-2.1,2.8-3.4c0-0.3-0.1-0.7-0.1-1c-6.3,0.4-11.3,5.6-11.3,12c0,0.9,0.1,1.8,0.3,2.6l0.1,0.7l-0.7-0.1
		c-0.4,0-0.8-0.1-1.3-0.1c-3.7,0-7.1,1.7-9.4,4.3v14.8H8.6z"/>
	<path class="st1" d="M9.6,191.7c2,1.4,4.4,2.1,6.9,2.1c6.6,0,12-5.4,12-12c0-2.2-0.6-4.4-1.7-6.2c0.8-0.7,1.5-1.5,2.1-2.4
		c-0.1-0.2-0.1-0.4-0.2-0.7c-0.7,1.1-1.6,2.1-2.6,3c1.2,1.8,1.9,4,1.9,6.3c0,6.4-5.2,11.5-11.5,11.5c-2.8,0-5.4-1-7.4-2.7v14.7H5.8
		v-14.6c-0.2,0.3-0.4,0.6-0.6,0.9c0,0,0.1-0.1,0.1-0.1V205c0.2,0.3,0.4,0.5,0.6,0.8h3.7V191.7z"/>
	<path class="st1" d="M9.1,205.3v-14.7c2,1.7,4.6,2.7,7.4,2.7c6.4,0,11.5-5.2,11.5-11.5c0-2.3-0.7-4.5-1.9-6.3c1-0.8,1.9-1.8,2.6-3
		c-0.1-0.3-0.1-0.5-0.1-0.8c-0.7,1.3-1.6,2.4-2.8,3.4l-0.4,0.3l0.3,0.4c1.2,1.8,1.8,3.9,1.8,6.1c0,6.1-5,11-11,11
		c-2.6,0-5.1-0.9-7-2.5l-0.8-0.7v15.3H6.3v-14.8c-0.2,0.2-0.3,0.4-0.5,0.6v14.6H9.1z"/>
	<path class="st1" d="M48,192.2c-0.3-0.5-0.6-1-1-1.5v1.5H48z"/>
	<path class="st1" d="M39.3,180.2c0.5,0,1.1-0.1,1.6-0.1c-1.1-5.1-5.5-9-10.9-9.4c-0.1,0.4-0.3,0.8-0.5,1.2
		C30.3,176.5,34.4,180.2,39.3,180.2z"/>
	<path class="st1" d="M29.6,171.8c0.2-0.4,0.4-0.8,0.5-1.2c-0.2,0-0.3,0-0.5,0c0,0.1-0.1,0.1-0.1,0.2
		C29.5,171.2,29.5,171.5,29.6,171.8z"/>
	<path class="st1" d="M29.5,170.6C29.5,170.6,29.5,170.6,29.5,170.6c-0.1,0.1-0.1,0.1-0.1,0.2C29.5,170.7,29.5,170.7,29.5,170.6z"/>
	<path class="st1" d="M29.2,172.5c-0.1,0.2-0.2,0.4-0.4,0.6c1.2,4.6,5.5,8,10.5,8c0.6,0,1.2-0.1,1.8-0.1c0-0.2,0-0.3-0.1-0.5
		c-0.6,0.1-1.1,0.2-1.7,0.2C34.3,180.7,30.2,177.2,29.2,172.5z"/>
	<path class="st1" d="M48.5,193.2c-0.1-0.2-0.2-0.3-0.2-0.5h-1.8v-2.6c-0.2-0.2-0.3-0.3-0.5-0.5v3.6H48.5z"/>
	<path class="st1" d="M29,170.7c0,0,0-0.1,0-0.1c-0.2,0-0.3,0-0.5,0c0,0.3,0,0.7,0.1,1C28.7,171.3,28.8,171,29,170.7z"/>
	<path class="st1" d="M29,171.7c-0.1,0.2-0.3,0.5-0.4,0.7c0,0.2,0.1,0.4,0.2,0.7c0.1-0.2,0.3-0.4,0.4-0.6
		C29.1,172.3,29.1,172,29,171.7z"/>
	<path class="st1" d="M29,170.7c-0.1,0.3-0.3,0.6-0.4,0.9c0,0.3,0.1,0.5,0.1,0.8c0.1-0.2,0.3-0.5,0.4-0.7
		C29,171.4,29,171.1,29,170.7z"/>
	<path class="st1" d="M29.6,171.8c-0.1,0.2-0.2,0.5-0.4,0.7c1,4.6,5.2,8.1,10.1,8.1c0.6,0,1.2-0.1,1.7-0.2c0-0.2-0.1-0.3-0.1-0.5
		c-0.5,0.1-1.1,0.1-1.6,0.1C34.4,180.2,30.3,176.5,29.6,171.8z"/>
	<path class="st1" d="M48.3,192.7c-0.1-0.2-0.2-0.3-0.3-0.5h-1v-1.5c-0.2-0.2-0.3-0.4-0.5-0.6v2.6H48.3z"/>
	<path class="st1" d="M29,170.6C29,170.6,29,170.6,29,170.6c-0.1,0,0,0.1,0,0.1C29,170.7,29,170.6,29,170.6z"/>
	<path class="st1" d="M29.6,171.8c-0.1-0.3-0.1-0.7-0.1-1c-0.1,0.3-0.3,0.6-0.4,0.9c0,0.3,0.1,0.5,0.1,0.8
		C29.3,172.3,29.4,172.1,29.6,171.8z"/>
	<path class="st1" d="M29,171.7c0.2-0.3,0.3-0.6,0.4-0.9c0-0.1,0-0.1,0-0.2c-0.1,0-0.2,0-0.3,0c-0.1,0-0.1,0-0.2,0c0,0,0,0.1,0,0.1
		C29,171.1,29,171.4,29,171.7z"/>
</g>
</svg>
